<svg xmlns="http://www.w3.org/2000/svg" id="Calque_1" data-name="Calque 1" viewBox="0 0 500 500"><defs><style>.cls-1{fill:#fff}</style></defs><path d="M310.5 271.59c.38.68 3.33.53 3.85 4.76.63 5.04-2.67 7.14-2.86 9.84-.22 3.18 2.59 10.88 2.86 15.05.44 6.7-.24 13.44-3.53 19.41l-8.44 7.03c24.5 8.41 8.33 41.8.99 57.93 10.48-2.66 28.28.61 32.71 11.76 10.25 25.8-28.74 19.7-42.74 16.75-5.62-1.19-12.02-4.41-16.68-5.3-3.5-.67-7.63.62-10.66-1.33-4.93-3.16-7.53-33.77-8.59-40.85h-10c-1.09 1.12 4.27 27.17.5 30.96-3.83 4.43-15.27 3.82-16.46-2.52-.86-4.6 1.99-27.44.98-28.44l-8.99-1c-2.57 7.52-3.42 37.75-7.73 42-4.56 4.5-25.96 8.45-32.76 8.92-7.76.54-27.77 1.62-29.4-8.53-2.83-17.62 18.24-26.7 32.91-22.42-4.76-14.21-14.45-31.81-9.7-47.15 3.08-9.93 13.7-11.94 22.7-13.78-1.6-2.18-1.34-6.03-2.55-7.92-1.11-1.73-7.31-5.65-9.44-8.55-16.17-22.05 8-53.04 29.98-59.43l-.62-2.05c-29.66-14.65-44.35-49.38-34.06-81.04 1.17-3.6 5.44-10.76 5.7-13.37.38-3.79-3.65-13.38-4.02-18.85-2.07-30.23 16.05-19.54 32.51-8.88 16.27-9.13 34.41-12.24 52.76-8.76 9.37-11.07 26.21-30.63 32.57-5.25 1.65 6.57.82 16.6 2.32 21.65.28.96 8.42 9.38 10.18 11.8 19.21 26.41 17.28 61.95-4.35 86.28 8.02 6.24-1.84 13.86-2.08 21-.15 4.49 2.58 10.52 2.99 15.1.17 1.86-1.17 4.56-.83 5.17Zm-13.1-79.72c-1.43-6.35 8.21-8.38 9.48-10.99 1.33-2.74 1.73-12.19 1.53-15.52-.9-14.96-12.1-33.74-29.41-27.32-8.29 3.07-10.72 10.63-14.09 17.86-24.49-29.85-60.4-8.44-48.5 28.52.4 1.25 3.79 8.99 4.22 9.26 2.47 1.57 14.29.94 14.79 8.17-16.44-11.6-34.84.64-28.02 20.52 5.88 17.14 30.62 29.3 48.02 28.4-6.7-7.34-1.02-14.7 7.58-15.88 10.64-1.46 20.4 2.88 29.38 7.9.75-5.5 3.22-9.68 8.1-12.38 2.04-1.13 4.61-1.16 6.43-2.56 5.29-4.07 13.27-21.8 13.48-28.55.47-15.2-14.59-19.71-23-7.44Zm6.99 87.88c-.59-4.13 2.62-6.55 3.03-10.47.86-8.4-4.28-14.86-1.1-25.04 1.18-3.76 5.94-7.2 2.08-10.93-6.95-4-14.66 8.53-12.55 13.45.12.28 4.95 5.16 1.04 5.01-.53-.02-5.97-5.41-8.19-6.77-6.18-3.79-26.46-10.62-31.35-3.77-8.24 11.54 22.02 5.28 25.04 11.08.42 2.24-.98 1.4-2.47 1.49-4.52.28-8.46-1.15-10.74 4.26-2.83 6.71 7.43-.05 7.23 5.71-12.51-1.01-14.46 12.15-3.01 15.98.93-1-6.27-9.3-.6-6.88 2.24.96 4.55 6.38 6.71 8.28 5.76 5.05 11.98 3.64 18.88 2.6-.26 4.35-5.79 4.15-8.98 3.99-.29 2.56 1.45 2.84 3.46 3.06 8.75.97 19.26-6.5 17.51-16.05l-5.98 4.98Zm-99.94 16.98 8.99-25.96c-8.37 4.34-17.12 18.01-8.99 25.96m90.93 8.99-.45-10.02-5.53-1.96c-.57.57 3.69 11.34 5.98 11.98m-55.95 38.45c.75-4.54-.55-10.71 0-15.48 4.46 3.38 4.17 11 3 15.97 3.18.14 5.01-4.36 5.54-6.93 2.81-13.44-10.81-31.89-25.01-31.06-3.26.19-6.1 2.54-9.52 2.04-.2-4.23 5.73-2.86 6.99-5.98-9.77-2.79-22.33 9.31-18.24 18.73.61 1.42.24 1.51 2.25 1.24-1.89-2.09 3.23-11.12 4.01-6.47.52 3.13-2.46 6.08.22 11.74 3.17 6.68 13.21 6.74 11.76 14.7l-2.49-1.99c-3.38 1.56-1.23 14.55 5.47 11.48 6.19-2.84 4.56-13.05 6.03-18.48 2.63-.31 1.57.07 2.02 1.47 1.64 5.13-.33 11.55-2.02 16.5 5.04 2.14 9.23-2.86 9.99-7.48m48.97-19.49-9.98-12.97-2 13.98c3.72-1.82 7.99-.75 11.98-1.01m-46.97 25.98h15.49l18.48-4.01-9.53-1.03zm36.98 36.95c1.61 1.49 5.8-6.66 6.51-7.97 5.51-10.16 17.28-37.48-4.52-33.98.38 9.93 1.6 14.66-8.76 18.43zm-72.96-10.99 2.89-12.41-7.76-5.18-2.1-11.36c-2.53 7.1.58 15.43 3.24 22.21.85 2.16 1.6 5.62 3.73 6.74m70.94-27.96c-5.23 3.12-11.59 4.08-17.6 4.87-10.66 1.4-21.5.87-31.91 1.24-1.82.06-3.1 1.72-4.91 1.78-3.7.13-5.4-3.15-7.78-4.14-3.28-1.37-7.55-1.08-10.72-3.75l.97 9.5c3.94 3.27 31.28 5.58 37.54 5.52 3.87-.03 11.06-.59 14.92-1.06 3.22-.39 16.79-2.73 18.53-4.45 1.94-1.91.63-6.83.96-9.52Zm-60.95 43.94c-.17-8.98 8.71-23.1-3.97-25.96l-3.83 15.27 7.8 10.68Zm57.96 12.98c.23-2.99-.45-6.35.2-9.28.42-1.89 2.36-2.93 2.33-4.78-.02-1.42-5.91-21.73-6.71-23.21-1.91-3.52-7.2 1.01-7.65 3.01-.24 1.08.8 5.8 1.01 7.63.53 4.58 2.52 19.54 4.08 22.89 1.22 2.61 3.95 3.92 6.74 3.74m-28.97-32.95c-2.81-.42-7.87.61-8.8 3.69-.61 2.04-1.29 17.02-.27 18.62 1.53 2.4 9.64 2.01 10.11 0zM330.13 83.22c10.46-1.5 22.14 8.87 13.65 18.69-2.87 3.32-9.12 4.4-11.94 7.04s-3.36 10.23-8.31 3.32c-2.3-9.52 19.22-12.29 14.35-20.28-4.38-5.82-12.99 4.97-16.04.03-2.72-4.4 4.83-8.3 8.29-8.79ZM328.22 125.81c-.8 1.28-7.67 2.95-7.94-2.35-.49-9.55 11.99-4.12 7.94 2.35"/><path d="M297.4 191.87c8.41-12.27 23.47-7.76 23 7.44-.21 6.75-8.19 24.48-13.48 28.55-1.82 1.4-4.39 1.43-6.43 2.56-4.88 2.7-7.35 6.88-8.1 12.38-8.98-5.02-18.74-9.36-29.38-7.9-8.6 1.18-14.28 8.54-7.58 15.88-17.4.9-42.14-11.26-48.02-28.4-6.82-19.89 11.58-32.12 28.02-20.52-.5-7.23-12.33-6.61-14.79-8.17-.43-.27-3.82-8.01-4.22-9.26-11.89-36.96 24.02-58.37 48.5-28.52 3.37-7.23 5.8-14.78 14.09-17.86 17.31-6.41 28.51 12.36 29.41 27.32.2 3.32-.2 12.78-1.53 15.52s-10.91 4.63-9.48 10.99Zm-8.01-20c-.4.47-5.55 2.51-6.49 4.02-2.81 4.55 5.64 16.75 12.04 13.03 11.01-6.39 3.91-39.72-7.98-38.05-5.31.75-9.92 13.69-4.91 16.87 1.48.94 9.12 2.02 7.34 4.12Zm-48.24-13.79c-5.23 1.52-6.03 10.76-6.64 15.18l9.89 5.12c0 .78-5.95 4.27-7.06 5.97-2.2 3.36 5.62 14.37 11.34 13.35 14.09-2.51 6.76-43.78-7.53-39.62m36.26 59.75c1.08-4.07-1.89-9.69-.82-13.27s10.77-7.11 5.9-13.3c-2.66-3.38-22.59-2.33-21.13 7.06.64 4.14 10.13 4.65 11.56 7.5l-.1 13.11c-6.54 3.52-38.8-1.82-41.96-7.1-.64-1.07 1.49-7.2-1.94-8.99-4.11.56-1.25 3.76-1.49 6.39-.56 6.21-8.54 5.64-9.01 7.08l.55 2.51c5.05.68 8.9-3.85 10.51-3.57 2.31.4 8.52 4.05 11.93 5.07 22.88 6.79 44.02 3.53 61.62-12.84 1.11-1.03 1.83-3.54 3.37-4.18 2.18-.92 6.78 2.49 8.97-.98-.47-3.93-3.25-1.38-5.28-1.67-4.07-.58-5.14-5.35-4.71-8.81h-2.99c-.88 5.99 3.12 8.24-1.47 13.03-2.76 2.88-20.84 15.59-23.51 12.95Zm8.98 7c-5.69.88-9.38 4.54-15.49 4.78-2.81.11-6.92-2.62-9.47.7.06 4.39 24.8 3.17 24.96-5.49Z" class="cls-1"/><path d="m304.39 279.75 5.98-4.98c1.75 9.55-8.76 17.01-17.51 16.05-2.01-.22-3.76-.51-3.46-3.06 3.19.15 8.73.36 8.98-3.99-6.9 1.03-13.13 2.45-18.88-2.6-2.16-1.9-4.47-7.32-6.71-8.28-5.67-2.42 1.53 5.88.6 6.88-11.45-3.84-9.5-16.99 3.01-15.98.2-5.77-10.06 1-7.23-5.71 2.28-5.41 6.23-3.99 10.74-4.26 1.49-.09 2.89.75 2.47-1.49-3.03-5.8-33.28.46-25.04-11.08 4.89-6.85 25.16-.02 31.35 3.77 2.22 1.36 7.66 6.75 8.19 6.77 3.91.15-.92-4.73-1.04-5.01-2.11-4.92 5.6-17.45 12.55-13.45 3.86 3.73-.9 7.17-2.08 10.93-3.19 10.18 1.96 16.65 1.1 25.04-.4 3.91-3.61 6.34-3.03 10.47Zm-3.1-18.88c-5.66-3.63-1.31 9.7 2.09 10.89.61-1.73-1.23-10.35-2.09-10.89m-1.91 13.88c-.13-3.78-2.82-9.38-6.98-9.98-1.19 1.34 4.16 10.16 6.98 9.98m-2.99 4c1.76-1.7-10.14-11.18-9.97-6.49.05 1.28 8.82 7.6 9.97 6.49M239.43 344.17c-.76 4.62-4.95 9.62-9.99 7.48 1.69-4.95 3.67-11.36 2.02-16.5-.45-1.4.61-1.78-2.02-1.47-1.47 5.43.16 15.64-6.03 18.48-6.7 3.07-8.84-9.92-5.47-11.48l2.49 1.99c1.45-7.97-8.58-8.02-11.76-14.7-2.69-5.66.3-8.6-.22-11.74-.78-4.64-5.89 4.38-4.01 6.47-2.01.27-1.64.18-2.25-1.24-4.09-9.42 8.48-21.52 18.24-18.73-1.26 3.11-7.19 1.75-6.99 5.98 3.42.5 6.26-1.85 9.52-2.04 14.2-.83 27.81 17.62 25.01 31.06-.54 2.57-2.37 7.07-5.54 6.93 1.17-4.97 1.45-12.59-3-15.97-.55 4.76.75 10.94 0 15.48m-13.98-34.45c-1.61 1.4 5.79 5.31 6.71 5.77 1.01.51 2.88 1.95 3.27-.3.47-2.72-7.49-6.25-9.98-5.47m4.98 10.97c1.33-3.37-7.09-9.47-8.99-7.97 1.26 1.26 6.75 10.2 8.99 7.97m-13.98-5.98c-.53.54 4.5 10.33 6.48 9.98 3.44-.61-2.05-7.16-2.96-8-1.1-1.01-1.72-2.35-3.51-1.97Z" class="cls-1"/><path d="M276.39 348.66c-.33 2.69.98 7.61-.96 9.52-1.75 1.71-15.31 4.06-18.53 4.45-3.86.46-11.05 1.02-14.92 1.06-6.26.06-33.6-2.25-37.54-5.52l-.97-9.5c3.18 2.67 7.44 2.38 10.72 3.75 2.38.99 4.08 4.27 7.78 4.14 1.81-.06 3.09-1.72 4.91-1.78 10.41-.37 21.25.16 31.91-1.24 6.01-.79 12.37-1.75 17.6-4.87Z" class="cls-1"/><path d="m278.41 387.61-6.77-23.52c10.36-3.77 9.14-8.5 8.76-18.43 21.81-3.5 10.03 23.82 4.52 33.98-.71 1.31-4.9 9.45-6.51 7.97M273.4 405.58c-2.79.18-5.52-1.14-6.74-3.74-1.56-3.34-3.54-18.31-4.08-22.89-.21-1.83-1.25-6.55-1.01-7.63.45-2.01 5.74-6.54 7.65-3.01.8 1.48 6.69 21.8 6.71 23.21.02 1.85-1.91 2.88-2.33 4.78-.65 2.92.02 6.28-.2 9.28M244.43 372.63l1.04 22.31c-.47 2.01-8.58 2.41-10.11 0-1.02-1.6-.34-16.58.27-18.62.93-3.09 5.99-4.12 8.8-3.69M215.44 392.6l-7.8-10.68 3.83-15.27c12.69 2.86 3.81 16.98 3.97 25.96ZM204.45 296.73c-8.12-7.95.62-21.63 8.99-25.96zM205.45 376.62c-2.14-1.12-2.88-4.58-3.73-6.74-2.66-6.78-5.77-15.11-3.24-22.21l2.1 11.36 7.76 5.18zM241.43 350.66l24.44-5.04 9.53 1.03-18.48 4.01zM288.4 324.68c-4 .26-8.26-.81-11.98 1.01l2-13.98zM295.38 305.72c-2.29-.64-6.55-11.41-5.98-11.98l5.53 1.96z" class="cls-1"/><path d="M277.41 217.83c2.67 2.65 20.75-10.07 23.51-12.95 4.59-4.79.59-7.04 1.47-13.03h2.99c-.43 3.46.65 8.23 4.71 8.81 2.03.29 4.81-2.26 5.28 1.67-2.19 3.46-6.79.06-8.97.98-1.54.65-2.26 3.16-3.37 4.18-17.6 16.38-38.74 19.64-61.62 12.84-3.41-1.01-9.62-4.67-11.93-5.07-1.61-.28-5.47 4.25-10.51 3.57l-.55-2.51c.47-1.45 8.44-.88 9.01-7.08.24-2.63-2.62-5.83 1.49-6.39 3.43 1.79 1.3 7.92 1.94 8.99 3.16 5.28 35.41 10.62 41.96 7.1l.1-13.11c-1.42-2.85-10.91-3.36-11.56-7.5-1.46-9.39 18.47-10.44 21.13-7.06 4.87 6.19-4.87 9.82-5.9 13.3s1.9 9.19.82 13.27Z"/><path d="M241.15 158.08c14.29-4.16 21.62 37.11 7.53 39.62-5.72 1.02-13.53-9.99-11.34-13.35 1.11-1.71 7.06-5.19 7.06-5.97l-9.89-5.12c.61-4.42 1.41-13.66 6.64-15.18M289.39 171.87c1.78-2.1-5.86-3.18-7.34-4.12-5.01-3.18-.4-16.13 4.91-16.87 11.89-1.67 18.99 31.66 7.98 38.05-6.41 3.72-14.86-8.48-12.04-13.03.93-1.51 6.09-3.55 6.49-4.02ZM286.39 224.83c-.16 8.65-24.9 9.87-24.96 5.49 2.55-3.32 6.66-.59 9.47-.7 6.1-.24 9.79-3.9 15.49-4.78ZM296.39 278.75c-1.15 1.11-9.92-5.21-9.97-6.49-.18-4.7 11.73 4.78 9.97 6.49M301.29 260.87c.86.55 2.7 9.16 2.09 10.89-3.39-1.19-7.75-14.52-2.09-10.89M299.38 274.75c-2.83.18-8.18-8.63-6.98-9.98 4.16.6 6.85 6.19 6.98 9.98M225.45 309.72c2.49-.78 10.45 2.76 9.98 5.47-.39 2.25-2.26.81-3.27.3-.92-.46-8.33-4.37-6.71-5.77M216.45 314.71c1.8-.38 2.41.96 3.51 1.97.91.84 6.4 7.39 2.96 8-1.98.35-7-9.44-6.48-9.98ZM230.43 320.69c-2.23 2.23-7.73-6.71-8.99-7.97 1.9-1.49 10.32 4.6 8.99 7.97"/></svg>