<svg xmlns="http://www.w3.org/2000/svg" id="Calque_1" data-name="Calque 1" viewBox="0 0 500 500"><defs><style>.cls-1{fill:#fff}</style></defs><path d="M343.82 213.56c7.2 1.24 10.06 10.1 10.07 16.53.02 10.86-9.4 30.43-14.53 40.49-1.49 2.92-9.19 12.86-9.4 13.66-.57 2.13 1.25 5.46.83 8.68-.32 2.38-3.1 5.4-2.81 6.93.27 1.4 14.76 17.89 17.35 22.6 9.62 17.51 7.5 37.29-16.92 33.89-10.15-1.41-20.77-11.76-28.56-17.89 7.65 29.19 19.07 58.79 3.85 87.75l-106.79-.36c-18.46-26.94-4.49-60.15 2.99-88.39-10.68 9.67-30.86 27.22-45.91 17.43-9.76-6.34-7.53-20.03-3.23-29.1 2.57-5.41 19.19-24.16 19.17-25.76s-2.99-4.55-3.06-8.05c-.06-2.82 1.83-5.23 1.77-5.96-.06-.78-7.47-10.18-8.88-12.81-3.5-6.53-8.08-16.15-11-22.97-5.49-12.83-9.23-30.05 6.04-37.25-1.5-18.65.04-36.52 8.24-53.68 1.69-3.54 8.11-11.84 8.67-14.32 1.03-4.53-1.56-11.82-1.84-16.72-.46-8.19-.87-31.93 9.75-34.29 11.14-2.48 26.75 12.33 34.73 18.75 22.97-9.16 47.97-8.82 71.02-.03 8.35-6.27 26.91-24.88 37.95-16.95 9.84 7.07 6.45 37.58 4.44 48.41 14.19 19.86 21.13 45.26 16.03 69.41Zm-94.93-54.88c-17.86-41.29-61.92-22.77-59.95 19.47.18 3.79 3.32 18.91 5.49 21.47 1.07 1.26 6.75 1.83 9.44 3.55 3.37 2.16 6.52 6.77 8.04 10.43l-8.67-6.8c-8.19-4.05-19.97-3.4-25.3 4.8 20.21.2 16.89 25.22 22.78 36.66 2.24 4.35 8.31 7.37 11.7 11.27 5.66 6.51 9.07 15.18 8.58 23.89 18.76 5.57 38.14 6.23 56.88.08-2.75-7.21 1.51-16.66 6.01-22.43 3.49-4.48 11.21-9.23 13.36-13.61 2.4-4.86 2.41-11.67 3.89-17.09 2.7-9.88 7.66-20.22 19.7-18.77-8.61-11.7-24.5-7.88-32.97 2.01-.7-9.55 14.83-11.76 16.9-14.56 3.68-4.97 5.48-22.47 4.95-28.76-2.34-27.54-29.8-48.23-51.88-25.14-3.94 4.12-5.26 9.51-8.94 13.52Zm-48.97 138.81c-1.98-2.72 7.76-3.79 9.69-4.79 10.69-5.53 6.19-21.06.28-28.64-3.26-4.17-10.72-8.69-12.82-12.16-4.53-7.47-4.36-35.53-16.66-35.39-8.15.09-6.16 12.93-5.01 18.09.82 3.65 7.26 16.55 4.54 18.45-1.08 1.18-1.67.41-2.49-.52-4.17-4.71-8.4-24.85-7.27-31.21.74-4.16 6-9.12-1.21-11.3-7.65-2.32-11.07 8.14-11.1 14.07-.05 10.5 6.73 20.4 8.06 30.45-2.22.31-3.25-1.72-4.2-3.28-5.18-8.46-8.29-22.83-7.8-32.67-5.73 3.55-5.58 11.37-4.88 17.37 1.25 10.7 17.43 42.19 25.96 48.96 2.42 1.92 12.4 6.86 12.9 8.09.79 1.97-1.33 1.53-2.52 1.53-5.13 0-9.08-3.94-13.45-6.04-3.01 15.25 29.76 23.02 37.5 15.02 1.84-1.9 4.24-7.1-.26-6.29-3.33.6-5.39 2.22-9.27.25Zm131.9-43.93c.52-6.21 4.09-11.63 5.7-17.76 1.9-7.25 4.51-27.05-7.22-26.27-8.84.59-3.17 7.47-2.58 11.67 1.06 7.54-1.42 15.67-4.16 22.63-1.22 3.09-2.81 10.55-6.75 8.24.61-11.24 13.51-26.96 2.04-36.03-15.31 1.68-12.37 23.67-17.47 33.6-2.85 5.55-9.12 8.44-12.97 13.01-10.48 12.45-9.8 30.79 9.4 31.88.23 5.88-10.49 1.6-10.98 1.98-2.18 5.54 4.73 9.24 9.57 9.9 10.29 1.39 30.83-4.89 29.39-17.88-4.45 1.43-8.7 5.38-13.52 5.97-2.47.3-1.3-1.58-1.5-3.33 5.02-2.92 10.82-4.96 15.07-9.09 6-5.83 21.9-37.94 22.84-46.09.57-4.92 1.03-15.85-4.88-17.36.48 9.82-2.63 23.23-7.79 31.66-.96 1.56-1.98 3.59-4.2 3.28Zm-28.17 58.15c-1.33-.5-3.42-.8-2.79 1.25 1.56 5.07 11.22 15.12 14.97 19.49l-12.17-20.75Zm-106.74.78-4.43 3.05-10.55 16.91c6.76-5.03 10.82-12.84 14.98-19.96M388.68 146.79c.76 1.13 0 3.28-.92 4.39-2.64 3.19-22.23 10.43-22.99 13.18-1.59 5.78 11.26 4.75 10.58 11.31-1.39 2.64-14.75 5.46-16.96 4.93-1.35-.32-2.4-2.41-.61-3.46l12-2.5c-1.94-2.57-6.99-2.74-8.48-6-1.12-2.43-.5-4.87 1.02-6.95l19.46-11.99c-7.62.05-24.92 4.85-30.66-1.32-6.36-6.85 3.72-16.6 2.67-17.66-4.39 0-7.66 5.96-11.98 4.49 2.64-2.95 17.54-13.21 20.43-12.48 4.38 1.11-3.89 8.52-4.88 10.05-17.57 27.24 27.09 7.7 31.31 14ZM116.97 159.68l13.91 8.56c4.56 5.03 8.72 11.36 3.6 17.43-1.52 1.81-3.68 2.23-4.52 3.95 2.11.09 4.29-.24 6.4.11 15.11 2.46-7.45 7.56-10.97.92-1.89-3.57 7.61-5.27 7.64-10.48.09-11.81-22.71-16.66-22.02-20.89s11.23-2.28 14.43-2.62c9.17-.98 17.57-1.81 13-12.96-1.15-2.81-12.19-14.44-6.86-15.91 2.94-.81 19.9 8.19 21.35 11.43.24.53.19 1.7-.49 1.48l-16.49-7.97c3.72 6.18 12.08 16.71 4.95 23.41-.91.86-7.51 3.54-8.45 3.54h-15.49Z"/><path d="M292.84 73.8c1.09 1-8.93 19.02-10.57 20.89-1 1.14-1.53 2.47-3.41 2.08-1.97-2.24 8.99-19.36 10.15-22.79l3.83-.17ZM216.4 74.81c2.94.14 8.37 15.05 8.82 18.15.13.9 1.09 3.91-.82 3.78-1-.07-8.67-16.49-9.04-17.92s-.51-4.08 1.05-4.01Z"/><path d="M248.89 158.68c3.67-4.02 5-9.41 8.94-13.52 22.08-23.09 49.54-2.4 51.88 25.14.53 6.28-1.27 23.79-4.95 28.76-2.07 2.8-17.6 5.01-16.9 14.56 8.47-9.89 24.35-13.71 32.97-2.01-12.04-1.45-17 8.9-19.7 18.77-1.48 5.41-1.49 12.22-3.89 17.09-2.16 4.38-9.87 9.13-13.36 13.61-4.5 5.78-8.76 15.22-6.01 22.43-18.73 6.15-38.11 5.49-56.88-.08.5-8.71-2.92-17.38-8.58-23.89-3.39-3.9-9.47-6.92-11.7-11.27-5.89-11.44-2.58-36.47-22.78-36.66 5.33-8.2 17.11-8.85 25.3-4.8l8.67 6.8c-1.53-3.65-4.67-8.27-8.04-10.43-2.69-1.73-8.37-2.3-9.44-3.55-2.17-2.56-5.31-17.68-5.49-21.47-1.97-42.23 42.09-60.76 59.95-19.47Zm-27.27 4.2c-5.21 1.19-7.72 10.45-8.5 15.17l9.76 7.11-9.58 6.94c3.52 22.41 20.63 17.86 22.47-3.06.71-8.15-2.6-28.79-14.14-26.15Zm64.02 16.58c1.8-10.57-9.81-24.96-17.98-11.49-4.91 8.09-5.18 22.4-1.66 31.03 6.75 16.54 20.94 5.89 19.71-7.69l-9.84-6.16 9.78-5.7Zm-23.06 29.44c-4.52-5.49-25.82-5.39-28.27 2.68-2.74 9.01 12.38 11.68 12.64 12.63l-.19 16.24c-10.31.26-20.06 19.99-10.13 24.86 5.29 2.6 8.49-.56 13.73-.81 6.34-.3 13.5 3.91 17.28-3.68 5.11-10.27-7.12-21.18-16.81-21.85l1.19-15.24c6.24-.84 16-8.24 10.57-14.83Zm12.27 50.66c-2.73-.54-1.71.68-2.42 2.02-1.14 2.15-1.67 4.69-3.63 6.41l-7.93 3.54c8.24 3.74 14.52-4.13 13.98-11.97m-34.96 10.98c-7 .3-9.91-3.47-11.99-9.51-2.88-2.22-2.12 7.73 2.61 10.39 2.88 1.62 12.51 1.66 9.38-.88" class="cls-1"/><path d="M199.92 297.49c3.88 1.98 5.94.35 9.27-.25 4.5-.81 2.1 4.39.26 6.29-7.75 7.99-40.52.22-37.5-15.02 4.37 2.1 8.32 6.03 13.45 6.04 1.19 0 3.31.45 2.52-1.53-.49-1.23-10.48-6.17-12.9-8.09-8.53-6.77-24.71-38.26-25.96-48.96-.7-6-.86-13.82 4.88-17.37-.49 9.84 2.62 24.2 7.8 32.67.95 1.56 1.98 3.59 4.2 3.28-1.33-10.05-8.11-19.95-8.06-30.45.03-5.92 3.45-16.39 11.1-14.07 7.21 2.19 1.95 7.14 1.21 11.3-1.13 6.36 3.1 26.51 7.27 31.21.82.93 1.41 1.7 2.49.52 2.72-1.9-3.72-14.8-4.54-18.45-1.16-5.16-3.14-18 5.01-18.09 12.3-.14 12.13 27.92 16.66 35.39 2.1 3.47 9.56 7.98 12.82 12.16 5.91 7.58 10.41 23.11-.28 28.64-1.92.99-11.67 2.07-9.69 4.79Zm-23.48-30.94c-2.89.63-.52 5.47.01 6.96 1.4 3.93 3.77 7.34 6.97 9.99 1.93-1.37 1.57-2.01 1.05-4.01-.57-2.16-5.48-13.49-8.03-12.94m17.47 16.97c1.15-1.17-3.03-13.39-4.21-15.26s-1.45-1.98-3.78-1.71c-1.79 2.9 4.52 20.51 7.98 16.97Zm-16.99-1c1.55-1.68-6.53-13.27-8.49-14.96-5.33 3.03 6.93 16.65 8.49 14.96M331.82 253.56c2.22.31 3.25-1.72 4.2-3.28 5.16-8.43 8.27-21.84 7.79-31.66 5.91 1.52 5.45 12.45 4.88 17.36-.94 8.14-16.84 40.25-22.84 46.09-4.25 4.13-10.05 6.18-15.07 9.09.2 1.75-.97 3.63 1.5 3.33 4.83-.59 9.07-4.53 13.52-5.97 1.44 12.99-19.09 19.27-29.39 17.88-4.84-.65-11.75-4.36-9.57-9.9.49-.38 11.21 3.9 10.98-1.98-19.21-1.09-19.89-19.43-9.4-31.88 3.85-4.57 10.11-7.46 12.97-13.01 5.1-9.93 2.16-31.92 17.47-33.6 11.47 9.07-1.44 24.79-2.04 36.03 3.94 2.31 5.53-5.15 6.75-8.24 2.74-6.96 5.22-15.09 4.16-22.63-.59-4.2-6.26-11.08 2.58-11.67 11.72-.78 9.12 19.02 7.22 26.27-1.61 6.13-5.18 11.55-5.7 17.76Zm-22.93 12.03c-.68 1.79-8.23 18.03-3.55 17.92 2.79-1.96 9.27-15.6 6.53-17.49zm3.95 16.93c3.46 3.4 13.6-16.97 7.49-16.95-1.9 1.91-8.75 15.71-7.49 16.95m17.97-14.97c-1.71-.21-2.22-.16-3.47 1.01s-7.81 12.48-6.51 13.96c4.06.32 11.82-13.11 9.98-14.97M303.65 311.71l12.17 20.75c-3.74-4.37-13.41-14.42-14.97-19.49-.63-2.05 1.46-1.75 2.79-1.25ZM196.91 312.49c-4.16 7.12-8.22 14.94-14.98 19.96l10.55-16.91z" class="cls-1"/><path d="M262.58 208.9c5.44 6.59-4.33 13.99-10.57 14.83l-1.19 15.24c9.69.67 21.93 11.58 16.81 21.85-3.78 7.59-10.94 3.38-17.28 3.68-5.24.25-8.44 3.4-13.73.81-9.93-4.87-.18-24.6 10.13-24.86l.19-16.24c-.26-.95-15.38-3.62-12.64-12.63 2.45-8.07 23.75-8.17 28.27-2.68Zm-13.7.72c-.59 4.35 9.38 5.3 9.98 2.48.7-3.29-7.97-3.41-9.98-2.48m13.99 50.92c-1.35-2.67-5.58-4.92-8.51-5.05-1.41-.06-8.91.4-10.25.71-2.02.47-6.16 2.36-6.23 4.84 2.97 2.71 6.19-.27 9.5-.5 5.46-.37 10.47 1.25 15.49 0M285.64 179.46l-9.78 5.7 9.84 6.16c1.23 13.58-12.96 24.23-19.71 7.69-3.52-8.63-3.25-22.94 1.66-31.03 8.17-13.46 19.78.92 17.98 11.49ZM221.62 162.88c11.54-2.65 14.86 18 14.14 26.15-1.83 20.93-18.95 25.47-22.47 3.06l9.58-6.94-9.76-7.11c.78-4.72 3.29-13.97 8.5-15.17ZM239.89 270.54c3.13 2.54-6.5 2.5-9.38.88-4.73-2.66-5.48-12.61-2.61-10.39 2.08 6.04 4.99 9.81 11.99 9.51M274.85 259.56c.54 7.84-5.73 15.71-13.98 11.97l7.93-3.54c1.96-1.72 2.49-4.26 3.63-6.41.71-1.34-.31-2.56 2.42-2.02M193.91 283.52c-3.46 3.54-9.78-14.07-7.98-16.97 2.33-.27 2.58-.19 3.78 1.71s5.35 14.09 4.21 15.26ZM176.44 266.55c2.55-.55 7.46 10.78 8.03 12.94.52 2 .88 2.64-1.05 4.01a22.95 22.95 0 0 1-6.97-9.99c-.53-1.49-2.91-6.34-.01-6.96M176.92 282.52c-1.56 1.69-13.82-11.93-8.49-14.96 1.96 1.69 10.04 13.28 8.49 14.96M308.89 265.59l2.98.43c2.74 1.88-3.73 15.53-6.53 17.49-4.68.12 2.87-16.13 3.55-17.92M312.84 282.52c-1.26-1.24 5.59-15.04 7.49-16.95 6.11-.01-4.03 20.36-7.49 16.95M330.81 267.55c1.84 1.86-5.92 15.29-9.98 14.97-1.3-1.47 5.21-12.74 6.51-13.96s1.76-1.23 3.47-1.01"/><path d="M262.87 260.54c-5.02 1.25-10.04-.36-15.49 0-3.31.22-6.53 3.2-9.5.5.07-2.48 4.21-4.38 6.23-4.84 1.34-.31 8.84-.77 10.25-.71 2.92.13 7.16 2.38 8.51 5.05M248.88 209.62c2.01-.93 10.68-.82 9.98 2.48-.6 2.83-10.58 1.87-9.98-2.48" class="cls-1"/></svg>