<svg xmlns="http://www.w3.org/2000/svg" id="Calque_1" data-name="Calque 1" viewBox="0 0 500 500"><defs><style>.cls-1{fill:#fff}</style></defs><path d="M299.19 238.58c-1.72 1.59 11.08 12.7 12.66 13.8 10.77 7.51 27.28 11.24 37.78 1.16 5.06-4.86.38-5.38.77-9.33.19-1.92 2.69-3.93 2.68-6.14s-2.96-7-2.83-10.89c.12-3.68 2.97-10.95 6.84-12.13 1.91-.58 5.03-.07 5.9-.6.37-.23 2.75-5.85 4.5-7.48 3.65-3.42 9.52-5.57 14.39-3.58 3.84 1.57 4.84 6.69 5.43 7.05 1.39.87 4.79-.33 7.74 2.75 2.6 2.71 1.98 6.19 3.37 8.12 1.11 1.54 3.46 1.53 5.2 5.28 4.41 9.52-5.75 23.44-14.49 27.46-1.85.85-6.34 1.34-6.79 1.72-.89.76-.7 4.96-5.15 6.32-3.68 1.12-8.66-.54-10.1 0-.99.37-4.73 4.92-6.62 6.27-22.3 15.99-43.47 9.89-64.27-4.82-1.04 9.82 1.57 19.78.98 29.45-.48 7.79-3.06 15.56-6.5 22.49 18.53 5.81 35.58 17.06 42.5 35.94 1.39.29 1.27.2 2.07-.63 4.67-4.89 5.95-9.66 13.2-13.55 15.27-8.19 34.86.43 25.51 19.5-5.16 10.52-23.84 25.48-35.01 28.92-20.82 6.43-16.94-11.05-21.58-23.94-4.83-13.42-16.82-23.17-29.91-28.04-15.24-5.67-13.09-.51-25.75.75-8.26.82-16.3-.53-24.35-1.87-11.36 28.42-40.81 33.35-64.07 14.87-1.91 13.91-11.62 24.3-26.44 21.91-6.28-1.01-9.88-8.55-9.56-14.39.7-12.8 23.97-44.6 38.37-36.38 4.3 2.45 4.56 8.11 6.57 11.41 5.49 9 21.97 14.51 30.5 6.45 2.61-2.47 9.86-15.27 6.49-17.97-13.32 7.38-24.99 3.69-37.27-3.19s-15.83-14.3-31.93-11.55c-4.4.75-8.44 4.45-12.67 5.32-11.33 2.31-16.45-9.02-7.56-15.55 7.27-5.34 21.25-6.94 29.99-5.99 19.6 2.13 31.62 27.23 52.44 18.95-3.06-13.64 1.26-27.7 7.84-39.58 3.25-5.88 15.9-21.52 15.97-26.99.03-2.55-8.8-7.18-11.29-8.3-13.61-6.13-27.94-5.81-39.24 4.49 1.39 2.29 1.99 4.3 1.87 7.03-.15 3.13-1.95 4.37-2.12 6.03-.23 2.22 1.7 3.88 1.96 5.98.65 5.16.74 12.59-4.56 15.31-2.26 1.16-4.89.75-6.37 1.63-2.36 1.4-2.65 9.16-10.56 10.43-8.35 1.34-7.77-2.63-12.5-5.37-3.05-1.77-6.39-1.52-9.32-4.66-.5-.53-7.4-11.63-7.67-12.31-4.58-11.52 3.81-22.42 13.16-27.94 1.75-1.04 4.77-1.12 5.66-1.84 1.35-1.1 1.01-4.97 5.19-6.29 4.38-1.39 8.07.92 10.35.39.73-.17 9.1-7.52 12.01-9.01 14.46-7.38 29.55-7.34 44.64-1.83-14.44-18.5-16.4-41.31-8.75-63.17 1.04-2.98 4.57-7.76 4.73-10.29.2-3.1-3.42-11.56-3.85-16.04-2.9-30.08 15.88-21.21 32.17-9.52 15.73-8.88 33.22-10.53 50.92-7.98 5.67-5.61 14.63-18.43 24-15.63 6.12 1.83 8.48 18.8 8.79 24.26.13 2.34-1.32 5.29-.94 6.79s9.65 11.26 11.64 14.37c26.55 41.42.51 94.67-46.77 102.18Zm27.98-57.93c2.1-9.6 9.88-7 10.97-17.49 1.32-12.7-2.83-33.95-18.47-35.44-12.72-1.21-17.85 7.59-21.99 17.96-22.17-30.18-59.3-9.81-47.51 26.52 3.7 11.41 5.74 5.94 13.37 10.61 1 .61 5.77 4.58 4.65 5.83-20.65-14.99-38.66 7.18-22.95 27.44 27.49 35.45 92.68 18.33 102.84-23.01 4.35-17.68-9.05-26.96-20.91-12.42m55.92 30.92c-1.11-9.66-14.86-3.93-16.03 3.46l6.42 3.43c3.28-2.28 5.23-6.42 9.61-6.89m10.99 9.99c.05-7.75-6.03-8.86-12.13-5.62-8.89 4.73-1.42 8.04-2.82 15.64l7.03-7.44 7.91-2.58Zm-33.93 6.03c.97-1.06 9.46 8.55 14.5 4.01 4.49-4.04-2.56-9.91-6.17-11.84-12.61-6.73-16.84 5.55-12.22 16.21 1.53 3.54 6.17 7.42 6.88 9.11.98 2.34-2.83 1.55-3.97.97-1.84-.94-2.37-3-3.51-4.47-5.38 2.32 4.47 12.11 7.15 13.82 3.54 2.25 14.4 6.27 15.32.17-3.18-.15-9.07-.83-7.98-5 10.35 4.29 20.1.93 26.41-8.06 3.27-4.66 8.2-17.05-1.04-17.9-14.89-1.37-20.51 29.03.59 9.98-1 11.05-17.16 14.12-18.08 1.11-1.9-.29-4.85-.77-5.7 1.57-.74 2.05.29 7.03-3.18 6.3.99-10-.27-6.25-5.51-9.98-1.85-1.31-3.94-3.44-3.49-5.99Zm-185.87 39.94c13.08 1.78 10.79-11.07 6.54-19.02-1.54-2.89-10.04-10.24-3.53-9.45l5.48 5.49c3.95-3.54-4.04-10.68-7.16-12.8-3.64-2.47-12.38-6.91-15.32-2.17 2.25.5 6.27.87 5.99 4-15.08-3.51-33.03 11.91-25.48 26.98.87 0 1.42-5.97 4.49-5-1.52 7.46-2.49 15.97 7 16.97l1.01-9.98c4.51 0 1.24 6.03 2.21 10.28 2.23 9.8 17.87 6.49 16.77-3.28-.98-1.11-6.17 5.37-5.97 1.49.04-.75 8.5-11.63 10.98-8.98l-3 5.48ZM327.17 402.37c2.6 2.28-7.59 3.7-8.62 3.87-31.84 5.07-81.12 3.03-113.81 1.13-9.55-.55-19.16-.09-28.47-3.02 2.33-3.25 8.68-3.34 12.61-3.86 34-4.48 91.68-4.3 125.78-.11 4.17.51 8.28 1.82 12.51 1.99"/><path d="M308.18 365.42c-.97 2.38-4.62 2.26-6.8 2.69-16 3.16-32.99 2.31-49.16 1.29l1.48-1.99zM145.29 171.66h49.96v2h-49.96zM136.3 331.45c1.59 1.2.01 1.82-1.48 2-4.63.56-10.18.05-15.01 1.06-3.08.33-5.94-.96-8.95-1.1-4.68-.22-12.49 1.69-15.53-1.96zM174.27 162.67c-1.62-1.22.01-1.81 1.48-2 4.22-.54 9.6.19 14.05.04 4.75-.15 6.78-1.87 12.29-.32 1.77.5 2.58-.33 2.16 2.28zM300.18 356.43c-.35 1.91-2.08 1.65-3.45 2.03-7.7 2.14-17.67 2.04-25.52.95l7.5-1.98zM174.27 185.64c-1.62-1.22.01-1.81 1.48-2 4.21-.54 9.61.17 14.05.04s8.65-2.35 13.45-.03c.28.38-1.31 1.99-1.5 1.99zM131.3 341.45l-2.5 2.98-18.48-1 10.5-1.98z"/><path d="M327.17 180.65c11.87-14.53 25.26-5.25 20.91 12.42-10.17 41.34-75.35 58.45-102.84 23.01-15.71-20.26 2.3-42.43 22.95-27.44 1.12-1.25-3.65-5.21-4.65-5.83-7.62-4.67-9.66.8-13.37-10.61-11.8-36.33 25.34-56.7 47.51-26.52 4.14-10.37 9.27-19.17 21.99-17.96 15.64 1.49 19.78 22.74 18.47 35.44-1.09 10.5-8.86 7.89-10.97 17.49m-9.65-5.34c5.16 5.11 10.01 2.47 11.96-3.83 2.12-6.83 1.36-17.31-1.92-23.68-7.45-14.51-17.72-3.21-15.25 8.75l7.84 3.63-6.63 5.97c.98 2.81 1.86 7.04 4 9.16m-39.33-8.65c-16.43 3.33-1.94 25.04 7.01 14.5 8.01-9.43.18-41.14-12.57-33.53-3.22 1.92-6.24 11.85-3.46 14.57 1.79 1.75 7.61 1.75 9.01 4.45Zm25.99 38.96h-19.49c-2.28 0-19.1-5.87-20.5-7.47-2.36-2.69 1-8.52-3.98-8.5.86 7.84-1.19 10.2-8.52 11.96l1 2.96 8.84-3.77c20.21 10.94 46.8 12.74 65.96-1.35 2.34-1.72 7.34-7.8 8.69-8.35 2.17-.88 5.88 2.32 7.96-.98l-6.95-3.01-3.52-7.45c-3.47 2.49-.19 6.63-.71 9.24-1.12 5.61-18.77 15.08-24.78 15.71l-.46-13.03c19.05-13.49-6.33-18.78-13.24-10.65-6.19 7.28 7.82 8.38 9.21 10.68l.48 14Zm11.99 5c-3.2.8-5.19 3.15-8.73 3.75-4.57.78-8.18-.35-12.2-.37-1.46 0-2.16.67-2.05 2.09.92 4.21 24.45 2.96 22.97-5.47ZM174.28 267.53l3-5.48c-2.48-2.65-10.94 8.23-10.98 8.98-.2 3.88 5-2.6 5.97-1.49 1.1 9.78-14.54 13.08-16.77 3.28-.97-4.25 2.3-10.28-2.21-10.28l-1.01 9.98c-9.49-.99-8.52-9.5-7-16.97-3.07-.97-3.62 5-4.49 5-7.55-15.07 10.4-30.49 25.48-26.98.28-3.13-3.74-3.5-5.99-4 2.94-4.73 11.68-.3 15.32 2.17 3.12 2.12 11.11 9.25 7.16 12.8l-5.48-5.49c-6.51-.79 1.99 6.56 3.53 9.45 4.24 7.95 6.54 20.8-6.54 19.02Zm-15-30.95c-.85-.84-8.22 3.91-9.23 4.96-2.23 2.33-2.18 5.96.74 4.03 1.15-.77 9.67-7.82 8.49-8.99m3.99 4c-5.34.8-9.72 6.78-8.98 11.97 2.08.45 2.27-1.08 3.22-2.27s6.64-8.83 5.77-9.71Zm5 2.99c-2.75.5-9.65 12.11-5.47 12.98 2.57.53 5.88-10.75 5.47-12.98M360.15 227.59c-.45 2.55 1.64 4.68 3.49 5.99 5.23 3.73 6.5-.02 5.51 9.98 3.48.73 2.44-4.25 3.18-6.3.85-2.34 3.81-1.86 5.7-1.57.92 13 17.08 9.94 18.08-1.11-21.1 19.05-15.48-11.35-.59-9.98 9.24.85 4.31 13.24 1.04 17.9-6.31 8.99-16.06 12.35-26.41 8.06-1.08 4.17 4.81 4.84 7.98 5-.93 6.1-11.78 2.09-15.32-.17-2.68-1.71-12.53-11.49-7.15-13.82 1.14 1.47 1.67 3.53 3.51 4.47 1.13.58 4.95 1.37 3.97-.97-.71-1.69-5.34-5.58-6.88-9.11-4.62-10.66-.39-22.94 12.22-16.21 3.62 1.93 10.66 7.8 6.17 11.84-5.04 4.54-13.53-5.07-14.5-4.01Z" class="cls-1"/><path d="m394.08 221.56-7.91 2.58-7.03 7.44c1.39-7.6-6.07-10.91 2.82-15.64 6.1-3.25 12.18-2.14 12.13 5.62ZM383.09 211.57c-4.38.47-6.33 4.61-9.61 6.89l-6.42-3.43c1.18-7.4 14.92-13.12 16.03-3.46" class="cls-1"/><path d="m304.18 205.62-.48-14c-1.39-2.3-15.4-3.4-9.21-10.68 6.91-8.13 32.29-2.84 13.24 10.65l.46 13.03c6.01-.63 23.66-10.1 24.78-15.71.52-2.62-2.76-6.75.71-9.24l3.52 7.45 6.95 3.01c-2.08 3.3-5.79.1-7.96.98-1.35.55-6.35 6.62-8.69 8.35-19.16 14.09-45.74 12.28-65.96 1.35l-8.84 3.77-1-2.96c7.33-1.76 9.37-4.12 8.52-11.96 4.98-.02 1.62 5.81 3.98 8.5 1.4 1.6 18.22 7.47 20.5 7.47h19.49Z"/><path d="M278.19 166.66c-1.41-2.7-7.22-2.7-9.01-4.45-2.78-2.72.24-12.65 3.46-14.57 12.75-7.62 20.58 24.1 12.57 33.53-8.95 10.54-23.44-11.18-7.01-14.5ZM317.52 175.31c-2.14-2.12-3.02-6.35-4-9.16l6.63-5.97-7.84-3.63c-2.46-11.96 7.8-23.26 15.25-8.75 3.27 6.38 4.03 16.85 1.92 23.68-1.96 6.31-6.8 8.94-11.96 3.83M316.17 210.62c1.47 8.43-22.05 9.68-22.97 5.47-.12-1.42.59-2.1 2.05-2.09 4.02.02 7.63 1.15 12.2.37 3.54-.6 5.53-2.95 8.73-3.75ZM163.27 240.58c.88.87-4.81 8.5-5.77 9.71s-1.13 2.72-3.22 2.27c-.74-5.19 3.64-11.17 8.98-11.97ZM168.27 243.57c.41 2.23-2.9 13.51-5.47 12.98-4.18-.87 2.72-12.48 5.47-12.98M159.28 236.58c1.18 1.17-7.33 8.22-8.49 8.99-2.92 1.94-2.97-1.7-.74-4.03 1.01-1.05 8.38-5.8 9.23-4.96"/></svg>