<svg xmlns="http://www.w3.org/2000/svg" id="Calque_1" data-name="Calque 1" viewBox="99 65 302 370"><defs><style>.cls-1{fill:#fff}</style></defs><path d="M140.09 288.77c-5.16-5.13-5.95-17.81 2.74-18.8 6.21-.7 6.98 7.94 11.31 11.25.76.58 8.4 4.99 8.9 5.13 2.19.58 4.1-1.37 7.01-.08 1.99.89 4.13 5.48 4.61 5.52 11.3-2.3 21.41-6.4 30.72-13.18l6.66-5.81c-16.67-.34-32.33-4.44-45.44-15.01-2.32-1.87-9.01-9.88-10.46-10.42s-5.33 1.13-8.34.24c-2.65-.79-3.28-4.42-4.73-5.26s-3.88-.45-5.7-1.29c-8.05-3.72-9.74-9.83-15.73-15.24-4.82-4.34-16.05-8.19-14.28-16.19.66-2.99 4.25-4.24 4.6-5.39.77-2.52-.74-5.35 1.09-7.93 2.92-4.13 9.18-1.37 10.12-1.9.84-.48 1.55-3.21 3.56-4.4 7.9-4.72 19.58 9.29 23.89 14.86l7.21-7.75c5.69-2.45 11.84-.85 11.32 6.25-.4 5.41-4.66 5.98-4.04 14.97.37 5.37 3.6 9 3.98 12.08.63 5.22-2.79 5.09 2.45 10.45 14.08 14.38 35.45 18.25 54.49 12.93l-17.9-10.56c-21.11-17.32-30.57-43.81-21.55-70.3 1.18-3.45 6.24-11.32 6.47-13.58.45-4.42-3.59-13.86-3.6-20.06-.05-24.82 17.4-14.29 30.11-5.31 16.99-6.77 33.61-9.24 51.73-5.97 13.89-19.3 29.2-21.92 30.67 6.47.15 2.86-1.11 8.64-.83 9.78.22.9 9.5 11.83 11.26 14.76 20.22 33.66 5.71 77.2-30.38 91.85.63 11.57 20.02 8.33 27.72 6.2 5.7-1.58 20.39-10.06 22.77-15.22.42-.91-2.08-4.29-1.55-7.46.45-2.71 3.35-3.39 3.75-5.17.11-.48.38-9.07.32-9.86-.46-5.93-7.88-9.79-4.11-16.05 4.1-6.81 16.53-.03 17.54 6.55 5.41-7.71 12.96-17.98 23.8-15.74 3.23.67 2.84 3.14 4.31 3.6 2.88.9 6.35-.88 9.33 1.69 4.06 3.5.83 8.95 1.12 9.35.12.16 2.38.82 3.46 2.03 7.78 8.67-5.59 13.42-10.57 17.52-6.77 5.57-7.97 11.89-16.59 16.38-2.14 1.11-5.79 1.5-7.08 2.42-1.04.74-1.55 3.24-3.94 4.58-3.7 2.06-5.41-.7-8.31.59-1.87.84-7.48 7.87-10.11 9.93-11.22 8.82-25.63 13.39-39.89 12.58 5.19 9.23 26.37 25.54 36.59 25.96 3.61.15 2.58-2.8 5.29-3.58 3.73-1.08 5.76.7 8.36.38 1.75-.22 10.33-3.96 11.77-5.24 1.92-1.71 3.64-5.96 5.96-7.02 7.64-3.47 12.07 5.92 8.75 12.73-1.1 2.25-3.87 3.06-3.76 5.71 6.67.58 23.91 3.7 24.95 11.58.45 3.42-.26 5.89-3.96 6.42.16 2.67 2.6 3.71 2.98 6.56.77 5.85-3.38 10.23-8.97 7.41 1.2 9.61-6.15 10.66-13.34 6.83-2.58-1.38-5.32-4.83-7.94-6.04-4.71-2.17-9.95-1.71-15.23-4.76-3.22-1.85-6.24-6.56-6.68-6.8-3.26-1.83-10.33 1.51-9.96-8.03-12.94-3.11-24.74-9.6-34.79-18.15 4.05 13.02 1.88 27.92-6.84 38.59 11.8 20.59 12.58 43.02 4.84 65.26 9.77-1.92 21.5-2.25 28.51 5.96 19.8 23.22-37.32 19.25-48.5 14.51-12.87-5.46 1.4-21.24 4.46-30.5 4.99-15.12 4.77-31.28-4.9-44.61-8.73 2.93-17.69 4.08-26.49.71-7.45 15.43-8.08 31.98-1.52 47.91 4.27 10.38 17.71 22.51-.52 27.49-8.53 2.33-44.64 6.25-47.76-4.2-4.56-15.31 20.74-21.85 31.77-17.28-8.63-20.56-7.1-42.17 1.85-62.27-15.01-15.09-12.56-34.65-7.85-53.57-10.08 8.6-21.89 15.22-34.76 18.68-2.38.64-9.17 1.05-10.23 1.76s-.97 3.49-2.96 5.03c-2.63 2.02-5.49.93-7.97 2.02-1.95.86-4.51 4.31-8.31 5.68-5.46 1.96-10.06 1.01-14.97 2.01-3.26.66-7.48 4.47-10.68 5.3-8.04 2.08-14.25-1.25-10.03-9.5-9.7 1.6-12.38-8.15-5.01-13.51l-.04-1.42c-9.83-5.34 2.46-14.05 9.55-14.05h14.49Zm159.64-98.12c3.08-3.21 2.95-18.36 2.01-22.98-4.95-24.32-32.3-27.54-38.75-2.74-1.3.22-1.27.27-2.07-.62-1.82-2.03-2.41-4.89-5.41-7.36-14.96-12.34-37.8-5.17-40.39 14.57-.79 5.99.19 21.68 4.85 25.94 3.07 2.8 12.93 1.58 13.04 9.43-20.43-15.53-36.53 6.36-22.39 25.88 20.25 27.95 65.17 25.59 88.39 2.62 7.98-7.89 21.38-29.81 10.48-39.52-6.61-5.89-15.09-.95-19.51 5.03-.3-7.1 7.5-7.9 9.73-10.23Zm-155.64 31.21c-1.28-6.05 3.55-7.87 5.86-12.3-5.41-7.47-12.46-17.95-22.85-16.66-2.76 2.83 10.39 11.59 12.02 14.51 11.04-.62-1.49 4.7-4.54 8.44-1.52 1.86-3.28 6.67-3.61 6.88-4.71 2.96-1.46-3.85-2.33-5.81-1.66-3.76-16.95-13.75-18.32-6.4-1.07 5.72 11.16 10.12 14.82 13.82 7.21 7.27 11.48 20.32 25.45 12.54l1.49 2.46-4.99 3c3.53 8 23.36-6.61 17.49-13.47l-6.5 4.98c-.1-3.78 3.39-5.82 3.94-9.56.62-4.27-1.5-7.7-.74-11.66.69-3.61 9.29-11.41 1.82-13.33-7.72-1.98-7.92 9.45-9.53 12.56-1.29 2.5-8.16 4.05-6.48 10.01h-2.99Zm-8.02-11.02c-.06-5.68-17.45-18.14-20.83-12.81-3.96 6.26 12.4 11.22 14.88 15.39zm219.87.04c6.62 2.47 6.08-1.82 9.45-5.04 1.62-1.55 11.1-7.14 5.88-8.8-8.38-2.67-17.95 11.54-22.15 17.34 2.49 1.74 8.65 9.91 5.81 12.47-2.07 1.86-3.59-5.77-4.5-6.97-1.18-1.55-3.45-2.1-4.38-3.61-2.7-4.32-.37-12.89-9.6-12.48-7.82.35.52 9.09 1.28 12.8.88 4.32-.5 9.36.44 13.55.72 3.22 8.01 8.98 1.77 8.22l-3.49-4.53c-6.2 1.91 1.55 9.07 4.03 10.97 3.24 2.48 6.54 4.36 10.79 4.09l1.67-2.57-4.33-1.47c-2.99-5.81 4.55-1.27 7.67-1.36 10.21-.29 12.84-9.51 18.62-15.17 3.3-3.24 13.41-7.96 14.04-12 1.6-10.34-15.49.15-17.53 4.58-1.35 2.94 1.86 4.92-.97 6.94-2.98-2.03-3.29-6.01-5.48-8.48-2.87-3.24-9.57-3.63-9-8.47Zm22.74-9.8c-3.43.51-12.97 7.97-14.28 10.81-1.5 3.25 2.22 4.79 4.03 6.95 2.33-5 16.11-9.04 16.53-13.52-.14-4.06-2.7-4.78-6.29-4.25Zm-232.85 72.99c-.84-.83-2.56-1.41-3.72-.83-7.36 6.57.34 10.1 2.44 14.58.89 1.88.5 4.08 1.66 6.33.4.79 7.24 6.52 3.38 6.59-2.4.04-7.2-6.72-8.17-9.01-4.35-.4-23.73.14-25.21 4.69-2.81 8.63 13.56 1.96 17.18 3.37l3.69-4.02c-.04 3.05-.18 6.02.45 9.05s4.53 7.95 4.53 8.43c.07 3.74-5.04-1.16-6.04-1.07-3.77.33-12.5 4.69-12.94 9.13-.89 9.05 15-1.68 17.72-2.34 7.53-1.83 17.05.41 22.27-7.7 1.32-2.04 1.9-6.67 3.5-7.49 3.27-1.68.21 6.73.49 6.97 6.48.23 6.55-7.67 5.9-12.39-.4-2.95-2.99-11.78-7.41-8.57l1.5 5.99h-2.96c.32-8.3-10.2-9.32-14.05-13.45-1.95-2.1-2.82-6.86-4.23-8.24Zm208.11 37.69c6.99-.69 5.7-5.36 7.5-8.99 1.14-2.28 12.09-7.88 6-14.01-4.31-4.34-7.02 4.29-9.59 6.43-3.27 2.74-8.53 2.78-11.88 5.11-2.41 1.67-3.31 4.63-5.55 6.44-4.03-.13 1.08-5.22.51-6.98-5.89-5.35-15.05 22.63-4 21.96.42-.41-2.81-8.77 2-7.99-.47 8.91 5.25 14.65 13.2 17.28 3.14 1.04 6.64.87 9.69 2.3 3.86 1.8 10.93 11.18 15.67 7.48l1.39-2.56c.09-3.74-8.34-10-11.64-10.3-2.04-.19-3.22 2.16-5.32 1.78-.22-4.2 4.43-5.76 5.52-9.95.71-2.72.5-5.28.47-8.03l2.93.06c.15 1.12.05 2.7 1.03 3.45 1.34 1.03 15.51 5.41 16.93 3.39 5.21-7.42-21.06-11.43-24.42-12.87-.6 4.38-6.84 10.99-10.47 5.98Zm-219.95-8.89c-4.86-1.62-23.35 4.04-18.45 10.94 2.89 4.07 15.3-4.53 19.53-4.1zM369 325.65c5.09.17 12.33 9.39 16.63 7.36 8.66-4.08-9.26-15.51-14.59-14.19z"/><path d="M350.67 151.18c14.78-3.07 24.04 11.36 14.78 22.76-7.9 9.73-22.87 4.95-25.11-6.99-1.19-6.34 3.92-14.45 10.32-15.77Zm8.78 4.77c-5.88 1.23 3.66 13.5 3.57 4.48-.02-1.74-1.59-4.9-3.57-4.48M262.66 77.39c13.24 13.25-6.18 33.55-19.69 21.18-14.08-12.9 6.38-34.49 19.69-21.18m-9.9 4.42c1.11-.97 1.51-3.15-.35-3.67-10.44-.89-5.57 8.81.35 3.67M145.82 140.19c15.75-3.19 24.69 18.34 10.61 26.59-19.1 11.2-30.51-22.56-10.61-26.59m-2.09 4.89c-2.58.85-4.17 6.42.81 5.9s4.59-7.68-.81-5.9M214.03 89.04l-25.29 13.16-19.67 15.79c-.44-1.87 1.04-2.38 1.99-3.5 10.09-12 27.22-23.38 42.97-25.45M378.91 287.77l-1.97-.48c7.16-13.94 5.42-28.08 5.98-42.97.05-1.21-.75-3.72.99-3.48 4.76 15.83.77 32-5 46.93M340.94 130.98c-11.07-12.13-22.5-22.49-35.96-31.95 11.75 4.39 23.97 14.06 31.4 24.04 1.64 2.21 3.94 5.23 4.57 7.91ZM122.09 277.78c-1.75-1-2.78-5.3-3.27-7.2-2.5-9.66-3.2-23.44.79-32.73.18 6.15-.85 12.23-.49 18.46.41 7.07 3 14.35 2.98 21.48ZM224.03 95.04 190.06 111c7.66-9.93 21.88-14.65 33.97-15.96M337.94 140.97l-22.97-24.96c10.08 4.26 18.96 14.89 22.97 24.96M374.92 248.83c2.87-.46 1.66.61 2.13 2.31.44 1.58.96 3.58.95 5.19 0 1.73-2.4 17.76-4.07 15.47-.87-1.87.99-4.6.99-5.49zM129.09 271.79c-1.45.01-1.93-3.05-2.27-4.21-1.73-5.87-1.98-11.66-1.71-17.76 1.37-.25 1.51 1.78 1.72 2.75 1.27 5.88 1.88 13.16 2.26 19.21Z"/><path d="M299.73 190.65c-2.23 2.33-10.04 3.14-9.73 10.23 4.42-5.98 12.9-10.91 19.51-5.03 10.9 9.71-2.5 31.63-10.48 39.52-23.23 22.96-68.15 25.33-88.39-2.62-14.14-19.52 1.96-41.41 22.39-25.88-.11-7.85-9.97-6.63-13.04-9.43-4.66-4.26-5.64-19.95-4.85-25.94 2.59-19.74 25.43-26.91 40.39-14.57 3 2.48 3.59 5.33 5.41 7.36.8.89.77.85 2.07.62 6.45-24.81 33.79-21.58 38.75 2.74.94 4.62 1.07 19.77-2.01 22.98Zm-14.74-11.72c-6.12 5.19-11.71 6.6-4.53 15 12.27 14.35 18.51-16.51 8.97-28.94-7.51-9.79-14.07 1.02-14.04 9.48.37 2.21 7.34 4.29 9.6 4.45Zm-45.26-12.8c-4.62 1.4-5.92 9.13-6.54 13.2l8.8 5.08c-5.39 4.73-9.6 5.14-4.81 12.82 6.82 10.91 14.42 4.26 15.73-5.91.97-7.46-2.33-28.47-13.19-25.18ZM267 223.86h-16.49c-2.14 0-21.57-6.96-22.38-8.1-.09-3.48 1.86-6.24-1.6-8.86-3.09 3.08.27 8.21-4.54 10.43-2.16.99-6.23-.25-5.95 3.53 3.67 1.56 8.72-2.21 11.25-1.83s9.91 4.5 13.51 5.55c16.83 4.92 33.21 4.39 48.31-5.08 2.21-1.39 9.86-8.3 10.58-8.49 2.32-.58 5.48 1.74 8.21-.22l.07-2.91-7.53-.97-2.97-8c-3.48 2.36-.32 7.14-.73 9.35-.84 4.47-20.21 15.41-25.74 14.6.48-3.66-.8-8.91.2-12.28.88-2.96 7.29-5.28 6.84-10.18-2.19-7.21-20.48-4.28-21.08 2.04-.51 5.42 7.71 5.6 9.5 8.47 2.47 3.96.25 8.68.54 12.95m12.99 6c-4.13-.52-6.51 2.51-10.46 3.01-4.45.56-9.15-.3-13.51-1.02-2.67 2.91 5.34 4.72 7.62 4.91 4.42.36 15.45-1.41 16.35-6.91ZM144.09 221.86h2.99c-1.67-5.96 5.19-7.51 6.48-10 1.61-3.12 1.81-14.54 9.53-12.56 7.48 1.92-1.13 9.71-1.82 13.33-.76 3.96 1.36 7.4.74 11.66-.54 3.74-4.04 5.77-3.94 9.56l6.5-4.98c5.88 6.86-13.96 21.47-17.49 13.47l4.99-3-1.49-2.46c-13.97 7.78-18.25-5.27-25.45-12.54-3.66-3.7-15.89-8.09-14.82-13.82 1.37-7.34 16.66 2.65 18.32 6.4.87 1.96-2.38 8.78 2.33 5.81.33-.21 2.09-5.02 3.61-6.88 3.05-3.74 15.58-9.05 4.54-8.44-1.63-2.92-14.78-11.68-12.02-14.51 10.4-1.29 17.44 9.19 22.85 16.66-2.3 4.42-7.13 6.25-5.86 12.3ZM355.94 210.88c-.57 4.84 6.13 5.23 9 8.47 2.19 2.47 2.5 6.45 5.48 8.48 2.83-2.02-.38-3.99.97-6.94 2.04-4.42 19.14-14.92 17.53-4.58-.63 4.04-10.74 8.76-14.04 12-5.77 5.66-8.41 14.88-18.62 15.17-3.13.09-10.66-4.45-7.67 1.36l4.33 1.47-1.67 2.57c-4.24.28-7.55-1.61-10.79-4.09-2.49-1.9-10.24-9.06-4.03-10.97l3.49 4.53c6.24.76-1.05-5.01-1.77-8.22-.94-4.19.45-9.23-.44-13.55-.76-3.7-9.1-12.45-1.28-12.8 9.22-.41 6.89 8.15 9.6 12.48.94 1.5 3.21 2.05 4.38 3.61.91 1.2 2.43 8.84 4.5 6.97 2.84-2.56-3.32-10.73-5.81-12.47 4.2-5.8 13.77-20.02 22.15-17.34 5.23 1.67-4.25 7.25-5.88 8.8-3.37 3.21-2.82 7.51-9.45 5.04ZM145.83 274.07c1.41 1.38 2.28 6.14 4.23 8.24 3.85 4.14 14.37 5.15 14.05 13.44h2.96l-1.5-5.97c4.42-3.21 7.01 5.63 7.41 8.57.65 4.73.58 12.63-5.9 12.39-.28-.25 2.78-8.65-.49-6.97-1.61.82-2.19 5.45-3.5 7.49-5.22 8.11-14.74 5.87-22.27 7.7-2.72.66-18.61 11.4-17.72 2.34.44-4.45 9.17-8.8 12.94-9.13 1-.09 6.11 4.81 6.04 1.07 0-.48-3.89-5.33-4.53-8.43s-.49-5.99-.45-9.05l-3.69 4.02c-3.62-1.41-19.99 5.26-17.18-3.37 1.48-4.54 20.86-5.09 25.21-4.69.96 2.29 5.77 9.05 8.17 9.01 3.86-.06-2.98-5.8-3.38-6.59-1.16-2.25-.77-4.45-1.66-6.33-2.11-4.48-9.81-8.01-2.44-14.58 1.17-.58 2.88 0 3.72.83ZM353.94 311.76c3.63 5.02 9.86-1.6 10.47-5.98 3.35 1.44 29.63 5.45 24.42 12.87-1.42 2.02-15.6-2.36-16.93-3.39-.98-.76-.88-2.33-1.03-3.45l-2.93-.06c.03 2.75.23 5.31-.47 8.03-1.09 4.19-5.74 5.75-5.52 9.95 2.11.37 3.28-1.97 5.32-1.78 3.3.3 11.72 6.55 11.64 10.3l-1.39 2.56c-4.74 3.7-11.81-5.68-15.67-7.48-3.05-1.42-6.55-1.26-9.69-2.3-7.95-2.62-13.66-8.37-13.2-17.28-4.81-.78-1.58 7.58-2 7.99-11.06.67-1.9-27.31 4-21.96.57 1.76-4.54 6.84-.51 6.98 2.24-1.82 3.14-4.77 5.55-6.44 3.35-2.32 8.61-2.37 11.88-5.11 2.57-2.15 5.27-10.78 9.59-6.43 6.08 6.13-4.87 11.73-6 14.01-1.81 3.63-.51 8.3-7.5 8.99Z" class="cls-1"/><path d="M378.68 201.08c3.59-.53 6.14.18 6.29 4.25-.42 4.47-14.2 8.52-16.53 13.52-1.81-2.16-5.53-3.7-4.03-6.95 1.31-2.84 10.85-10.3 14.28-10.81ZM136.07 210.84l-5.95 2.58c-2.48-4.18-18.84-9.14-14.88-15.39 3.37-5.33 20.76 7.13 20.83 12.81M133.99 302.87l1.08 6.84c-4.23-.44-16.63 8.17-19.53 4.1-4.9-6.9 13.59-12.56 18.45-10.94M369 325.65l2.04-6.83c5.34-1.32 23.26 10.11 14.59 14.19-4.3 2.03-11.54-7.19-16.63-7.36M359.45 155.95c1.99-.42 3.56 2.74 3.57 4.48.09 9.02-9.46-3.25-3.57-4.48M252.76 81.81c-5.92 5.14-10.79-4.57-.35-3.67 1.86.52 1.47 2.71.35 3.67M143.73 145.08c5.41-1.78 5.73 5.39.81 5.9s-3.4-5.05-.81-5.9" class="cls-1"/><path d="M267 223.86c-.29-4.26 1.92-8.99-.54-12.95-1.79-2.87-10.01-3.05-9.5-8.47.6-6.31 18.89-9.25 21.08-2.04.45 4.89-5.96 7.22-6.84 10.18-1 3.37.27 8.62-.2 12.28 5.53.82 24.9-10.13 25.74-14.6.42-2.22-2.75-6.99.73-9.35l2.97 8 7.53.97-.07 2.91c-2.72 1.96-5.89-.36-8.21.22-.72.18-8.37 7.1-10.58 8.49-15.1 9.48-31.48 10-48.31 5.08-3.6-1.05-10.97-5.17-13.51-5.55s-7.57 3.4-11.25 1.83c-.28-3.78 3.79-2.54 5.95-3.53 4.81-2.22 1.45-7.34 4.54-10.43 3.46 2.61 1.52 5.38 1.6 8.86.81 1.15 20.24 8.1 22.38 8.1z"/><path d="M239.73 166.13c10.86-3.29 14.16 17.72 13.19 25.18-1.32 10.17-8.92 16.82-15.73 5.91-4.79-7.67-.59-8.08 4.81-12.82l-8.8-5.08c.62-4.07 1.91-11.8 6.54-13.2ZM284.99 178.93c-2.26-.16-9.23-2.24-9.6-4.45-.03-8.46 6.53-19.27 14.04-9.48 9.54 12.43 3.3 43.29-8.97 28.94-7.19-8.4-1.59-9.81 4.53-15ZM279.99 229.86c-.9 5.5-11.93 7.26-16.35 6.91-2.28-.19-10.29-2-7.62-4.91 4.36.72 9.06 1.58 13.51 1.02 3.96-.5 6.33-3.53 10.46-3.01Z"/></svg>