<svg xmlns="http://www.w3.org/2000/svg" id="Calque_1" data-name="Calque 1" viewBox="103 91 294 318"><defs><style>.cls-1{fill:#fff}</style></defs><path d="M298.32 227.22c-.28 1.62 1.26.99 2.26.77 4.12-.92 20.56-7.45 23.07-6.67 1.41.66 1.57 2.44 2.74 3.31 1.69 1.25 12.07 8.76 12.84 9.04 1.7.61 5.81-2.13 6.91 1.19l.28 25.68c6 3.18 12.59 5.57 13.66 13.39.55 4.03-1.67 6-1.52 8.56s2.18 4.35 1.7 8.05c-.3 2.32-2.55 4.46-2.59 6.08s1.43 2.97 1.19 5.55c-.97 10.14-12.33 10.47-13.41 13.6l-1.08 22.89-24.06 9.9 18.49 10.47c4.18-10.95 6.66-22.85 17.15-29.77 13.79-9.1 30.87-1.33 32.18 15.44s-14.06 54.29-32.46 56.24c-13.54 1.44-18.7-12.73-27.36-20.42-6.11-5.43-27.92-20.17-35.5-20.53-3.97-.19-26.95 9.34-32.47 11.55-4.54 1.82-7.45 5.46-13.48 5.48-8.71.03-11.39-4.28-17.6-7.37-8.23-4.09-16.81-7.64-25.2-11.36-10.78 4.1-21.4 9.25-30.57 16.33-6.92 5.35-7.76 8.2-12.66 14.31-28.38 35.42-70.05-54.72-36.6-65.55 20.82-6.74 33.61 16.04 35.2 33.67l18.97-10-18.72-9.23-4.16-24.08c-4.92-1.8-11.32-3.62-12.67-9.55-.68-3 .35-4.82.12-6.59-.2-1.57-3.11-4.08-3.5-7.05-.45-3.39 1.14-5.9.93-8.79-.17-2.31-1.98-4.45-1.99-7.1-.04-8.7 9.82-11.17 10.05-13.98l-3.59-26.45c1.93-3.85 5.99-.9 7.94-1.24s3.07-4.77 6.68-3.23l1.01-3.46 6.31.04 2.07-4.96c8.9 2.68 17.78 5.71 26.19 9.66 4.8 2.25 13.66 8.61 17.27 9.74 2.05.64 3.58.84 5.03-1.08-32.54-14.82-49.04-52.56-35.45-86.36 1.34-3.33 6.22-10.18 6.47-12.58.43-4.14-3.09-15.19-3.02-20.84.31-25.12 20.19-11.78 32.31-3.74 17.68-7.73 37.62-9.32 56.02-3 14.87-14.54 30.57-24.69 33.49 4.81.44 4.45-1.16 13.3-.68 15.63.39 1.88 6.46 9.24 7.97 12.05 13.65 25.43 9.09 55.11-9.65 76.58-1.71 1.95-3.9 4.48-6.5 5ZM286.07 191c1.64-1.71 4.09-13.43 4.23-16.25 1.76-35.36-37.88-45.07-48.96-11.47-7.52-10.26-13.3-20.82-28.24-17.75-17.6 3.62-19.49 34.93-11.17 46.66 2.03 2.87 11.01 4.2 11.43 10.04-15.85-12.52-28.64.5-16.39 16.89 21.6 28.91 73.16 30.97 97.74 4.98 19.73-20.86 1.92-41.5-19.37-22.87-.83-6.19 8.64-8.05 10.73-10.23m-34.73 77.15 83.94-31.97-1.67-2.87-31.3 8.87c7.44-5.69 18.09-7.92 26.97-10.99.24-1.52-2.2-1.56-3.12-1.47-13.52 1.35-29.29 11.58-42.84 14.45 11.36-8.45 26.37-12.3 39.97-15.98.28-1.26-.44-2.56-1.65-2.89-1.94-.52-24.82 7.65-28.57 9.14-19.4 7.71-38.76 18.57-53.27 33.69-.81.84-1.34 1.83-1.46 3.01-2.74.73-1.91-1.63-3.11-3.32-11.24-15.73-24.58-25.84-42.16-33.8-3.31-1.5-19.69-8.32-21.66-7.32-1.36.69-1.02 1.17 0 2 3.55 2.85 19.02 7.51 24.65 10.32 9.07 4.52 16.65 10.09 24.32 16.64l6.47 7.51c-18.12-16.36-39.88-26.48-62.93-33.98-2.78 4.86 8.26 4.13 10.47 7.99-1.85.54-18.15-6.79-17.96-2.49 21.58 11.45 43.97 21.32 65.97 31.92 2.83 1.36 4.69 3.97 7.94 5.04 6.29 2.08 17.07 2.88 21-3.51l-4 .99c-2.36-1.87 32.51-19.53 35.97-17.96l-31.97 16.97Zm-30.19 2.23-71.24-34.18 3.54 33.91c5.41-.02 14.15 4.93 14.92 10.6.43 3.16-1.02 5.4-.91 7.84.23 5.46-.05 7.17-.08 12.04 0 2.25 1.39 3.94.85 6.76-1.03 5.39-7.64 5.45-7.89 6.34l2.56 20.37 68.45 31.95-10.2-95.64Zm121.13-32.19-90.02 35.6 7.59 93.25 80.97-30.93.42-21.97c-5.72.13-8.84-2.86-9.04-8.53-.06-1.66 1.03-3.53.82-4.86-.25-1.58-2.82-2.88-2.79-6.13.02-2.4 2-4.17 1.85-5.82-.14-1.54-1.86-3.11-1.88-6.16-.05-6.22 6.26-11.05 12.09-11.49v-32.96Zm-5.65 39.3c-9.72 10.14 8.1 13.33 16.69 4.2 6.28-6.68 1.03-15.13-7.04-16.52-1.47 5.09 1.95 4.38 2.99 7.98-3.96.15-9.85 1.44-12.64 4.35Zm-187.22-11.33c-1.14-1.29-6.08 4.44-6.56 5.94-3.8 11.96 19.02 17.71 21.41 13.89 2.04-9.21-7.3-12.44-14.8-12.89zm101.93 8.98c-9.32 3.47-18.81 2.5-27.97-1 4.62 29.32 7.27 58.83 9.98 88.39.11 1.21-.83 2.6-.78 3.89 5.52 7.02 16.6 7.31 23.81 2.94zm-107.91 9.99c-5.16 12.09 22.71 19.41 21.75 8.65-1.25-5.31-3.28-2.22-6.21-2.62-5.54-.77-11.06-2.66-15.54-6.03m192.1 12.74c6.32 6.22 24.58-2.06 20.73-12.75-6.6 4.52-12.61 6.87-20.83 6.13-1.06 1.85-1.52 5.02.1 6.61Zm.76 5.24c-1.5 13.08 20.57 6.94 18.97-4-5.59 4.13-12.17 5.62-18.97 4m-187.56 3.67c3.82 3.49 17.76 4.2 15.62-3.08-1.8-2.58-5.05-.3-8.33-.65-1.84-.19-9.13-3.46-9.6-2.94-.31 2.19.7 5.2 2.31 6.67"/><path d="M286.07 191c-2.09 2.18-11.56 4.04-10.73 10.23 21.29-18.63 39.1 2 19.37 22.87-24.58 25.99-76.14 23.93-97.74-4.98-12.25-16.39.55-29.41 16.39-16.89-.42-5.83-9.4-7.17-11.43-10.04-8.33-11.74-6.43-43.04 11.17-46.66 14.94-3.07 20.72 7.49 28.24 17.75 11.08-33.6 50.72-23.89 48.96 11.47-.14 2.82-2.59 14.54-4.23 16.25m-14.95-10.94c1.55-9.84-9.96-17.48-15.54-7.05-3.56 6.64-3.02 17.91 1.33 24.16 7.63 10.97 17.13 1.74 15.25-8.76l-7.82-3.17zm-48.76 5.21c7.74-2.42 9.22-7.95 3.04-13.54-13.33-12.06-18.93 22.26-5.94 29.94 7.03 4.15 11.75-4.3 10.98-10.94-.37-3.19-6.79-2.28-8.08-5.46m28.72 17.23c-3.22-3.88-18.93-4.08-20.57 1.44-2.28 7.72 6.64 7.44 8.65 10.96 1.5 2.63 1.04 7.29 2.18 10.29-7.39.72-30.02-8.24-32.43-14.92-.57-1.59 1.78-4.49-1.05-6.04l-2.72 6.74-6.75 2.73c2.56 3.95 7.08-.31 8.49-.21.7.05 9.07 6.9 11.47 8.23 16.72 9.21 36.98 8.98 53.65-.34 2.73-1.53 11.29-8.83 12.02-9 2.47-.57 9.17 3.54 10.29-1.64-2.32-2.33-3.83.4-7.37-1.63-2.8-1.61-3.84-4.78-3.62-7.88h-2.99l1.99 8.97c-2.88.47-4.42 3.2-6.66 4.85-8.95 6.58-20.11 10.44-31.3 10.14l-1.06-11.31c3.75-1.42 11.63-6.75 7.78-11.38m6.25 28.7c-7.21 2.39-12.03 3.22-19.47.98l-.53 2.51c.8 2.5 21.59 4.5 20-3.49M342.28 238.19v32.96c-5.83.44-12.14 5.26-12.09 11.49.03 3.05 1.74 4.62 1.88 6.16.15 1.65-1.83 3.42-1.85 5.82-.03 3.25 2.54 4.55 2.79 6.13.21 1.33-.87 3.2-.82 4.86.2 5.67 3.32 8.65 9.04 8.53l-.42 21.97-80.97 30.93-7.59-93.25 90.02-35.6Zm-30.32 27.19c-9.88.87-11.52 20.55-4.11 21.75 13.13 2.13 12.76-22.52 4.11-21.75m15.32 1.78c-7.46-.7-11.77 10.04-1.99 9.99 1.06 3.69-4.21 1.24-4.99 1.99-.33 8.67 11.4.31 7.57-5.07l-4.57-.93 1.51-2.61 2.49.62v-3.99Zm-25.2 14.17c-.35-.56-2.33-.59-2.5-1.6-.24-1.44 2.28-6.38-.2-8.15s-11.4 1.43-10.05 5.56c.52.57 7.77-4.15 7.96-.5.13 2.38-6.35 4.1-4.96 7.49l5.98-1-.14 4.85-7.86 1.15v3.98c6.09 2.44 15.11-6.46 11.77-11.79Zm-19.97 16.56c.3-.17 2.97-5.13 3.4-6.08 9.88-21.8-15.04-19.83-9.07-1.81l6.88-.87c-.33 1.85-7.54 8.82-3.48 8.99.8.03 1.54.19 2.28-.23Zm-10.79-17.75-7.98 5.5 3.98.49 1.01 14.98h3.99zm57.96 13.97-1.48-3.96c-4.08 1.33-7.65 4.21-6.09 9.03l5.58.94-.98 3.52-5.02.48c1.27 6.55 9.38 1.48 9.04-3.45-.2-2.97-3.42-3.87-6.05-3.55v-2.99h5Zm-8.99.02-7.86 2.62.88 14.34 7.98-3.51c1.61-3.09-5.44.08-5.98-.49-1.08-3.99 3.45-3.41 4-6.48l-4 .49-.05-3.36 5.04-3.62Zm-13.99 4c2.15 2.2-.36 14.95 2.5 14.95 3.81-4.45-.19-10.84.49-15.96zm-1 15.95c1.62-1.54-2.7-4.8-2.74-5.47-.08-1.3 2.91-3.15 1.27-6.49-1.36-2.77-5.55-2-7.55-.49s1.73 27 3.03 8.47c1.97-2.57 2.9 6.93 5.99 3.98m-12.23-8.73c-6.58-6.68-14.25 11.02-7.76 14.24 7.61 3.79 11.76-10.18 7.76-14.24m-10.76 1.75-8.98 3.51 2.98.49 1.02 12.98 2.99-1.04c-.74-3.32-1.84-9.09-1.02-12.24.37-1.4 3.74-1.07 3.01-3.69Zm-9.99 4c-5.23-.73-9.88 3.65-7.09 8.58l5.11 1.41v2.99l-5.51 1c-1.54 2.17 6.21 4.1 8.08-1.96 1.45-4.7-1.36-5.72-5.57-6.04l4.99-5.98ZM221.15 270.38l10.2 95.64-68.45-31.95-2.56-20.37c.25-.89 6.86-.96 7.89-6.34.54-2.82-.86-4.52-.85-6.76.02-4.87.31-6.58.08-12.04-.1-2.44 1.34-4.67.91-7.84-.77-5.67-9.51-10.63-14.92-10.6l-3.54-33.91 71.24 34.18ZM251.34 275.14l5.04 94.22c-7.21 4.37-18.29 4.08-23.81-2.94-.06-1.29.89-2.68.78-3.89-2.7-29.56-5.36-59.07-9.98-88.39 9.16 3.5 18.65 4.47 27.97 1" class="cls-1"/><path d="M251.34 268.15c-3.93 6.39-14.71 5.59-21 3.51-3.25-1.07-5.11-3.68-7.94-5.04-22-10.61-44.39-20.47-65.97-31.92-.19-4.3 16.12 3.03 17.96 2.49-2.21-3.87-13.26-3.14-10.47-7.99 23.05 7.5 44.81 17.62 62.93 33.98l-6.47-7.51c-7.67-6.55-15.25-12.12-24.32-16.64-5.63-2.81-21.11-7.46-24.65-10.32-1.03-.83-1.37-1.31 0-2 1.97-1 18.36 5.82 21.66 7.32 17.58 7.96 30.92 18.07 42.16 33.8 1.2 1.68.37 4.05 3.11 3.32.12-1.17.65-2.16 1.46-3.01 14.51-15.12 33.88-25.98 53.27-33.69 3.75-1.49 26.63-9.66 28.57-9.14 1.21.33 1.93 1.63 1.65 2.89-13.6 3.68-28.61 7.53-39.97 15.98 13.55-2.87 29.32-13.1 42.84-14.45.92-.09 3.36-.05 3.12 1.47-8.89 3.07-19.53 5.29-26.97 10.99l31.3-8.87 1.67 2.87-83.94 31.97 31.97-16.97c-3.46-1.57-38.33 16.09-35.97 17.96l4-.99Zm-30.99-4c1.85-1.96-9.35-7.98-10.68-8.79-6.44-3.9-14.05-8.34-21.29-10.18l31.97 18.96Zm50.98-14.97c-9.95 3.85-20.11 10.8-26.98 18.96zM336.63 277.49c2.79-2.91 8.68-4.2 12.64-4.35-1.03-3.6-4.46-2.89-2.99-7.98 8.06 1.39 13.32 9.85 7.04 16.52-8.59 9.13-26.41 5.94-16.69-4.2ZM149.41 266.16l.05 6.94c7.5.45 16.84 3.68 14.8 12.89-2.39 3.82-25.22-1.93-21.41-13.89.48-1.51 5.42-7.23 6.56-5.94M335.53 297.87c-1.62-1.59-1.15-4.77-.1-6.61 8.21.74 14.22-1.61 20.83-6.13 3.85 10.69-14.4 18.96-20.73 12.75Z" class="cls-1"/><path d="M143.43 285.13c4.48 3.37 10 5.26 15.54 6.03 2.93.41 4.96-2.69 6.21 2.62.96 10.76-26.91 3.44-21.75-8.65M336.29 303.11c6.8 1.62 13.38.13 18.97-4 1.6 10.94-20.47 17.08-18.97 4" class="cls-1"/><path d="M148.73 306.78c-1.61-1.47-2.61-4.48-2.31-6.67.46-.52 7.76 2.74 9.6 2.94 3.28.35 6.53-1.93 8.33.65 2.14 7.28-11.8 6.57-15.62 3.08" class="cls-1"/><path d="M251.08 202.5c3.85 4.64-4.02 9.97-7.78 11.38l1.06 11.31c11.19.3 22.35-3.56 31.3-10.14 2.24-1.65 3.78-4.38 6.66-4.85l-1.99-8.97h2.99c-.22 3.1.82 6.27 3.62 7.88 3.54 2.03 5.05-.7 7.37 1.63-1.12 5.18-7.82 1.07-10.29 1.64-.73.17-9.29 7.48-12.02 9-16.67 9.32-36.93 9.56-53.65.34-2.4-1.32-10.76-8.18-11.47-8.23-1.41-.1-5.93 4.16-8.49.21l6.75-2.73 2.72-6.74c2.83 1.55.48 4.45 1.05 6.04 2.42 6.67 25.05 15.64 32.43 14.92-1.14-3-.68-7.67-2.18-10.29-2.01-3.53-10.93-3.24-8.65-10.96 1.63-5.52 17.34-5.32 20.57-1.44"/><path d="m271.12 180.06-6.78 5.18 7.82 3.17c1.88 10.5-7.62 19.73-15.25 8.76-4.35-6.26-4.89-17.52-1.33-24.16 5.58-10.43 17.09-2.78 15.54 7.05M222.36 185.27c1.29 3.18 7.71 2.27 8.08 5.46.77 6.64-3.96 15.09-10.98 10.94-12.99-7.67-7.39-42 5.94-29.94 6.18 5.59 4.7 11.12-3.04 13.54M257.33 231.2c1.59 7.99-19.19 5.99-20 3.49l.53-2.51c7.44 2.24 12.26 1.41 19.47-.98M311.96 265.38c8.65-.76 9.02 23.88-4.11 21.75-7.41-1.2-5.77-20.88 4.11-21.75m1.1 17.53c2.14-4.29 2.17-10.67-2.24-13.51-4.35-.65-4.71 11.91-1.82 13.83l4.07-.32ZM282.11 297.89c-.74.42-1.48.26-2.28.23-4.06-.16 3.15-7.14 3.48-8.99l-6.88.87c-5.97-18.02 18.95-19.99 9.07 1.81-.43.95-3.1 5.91-3.4 6.08Zm-3.78-11.77c10.75.58 4-10.8.48-5-.87 1.43-.46 3.39-.48 5"/><path d="M302.08 281.33c3.34 5.33-5.67 14.22-11.77 11.79v-3.98l7.86-1.15.14-4.85-5.98 1c-1.39-3.39 5.09-5.11 4.96-7.49-.2-3.65-7.45 1.07-7.96.5-1.35-4.13 7.5-7.38 10.05-5.56s-.04 6.71.2 8.15c.17 1.01 2.15 1.05 2.5 1.6ZM305.3 314.08c-3.09 2.94-4.02-6.56-5.99-3.98-1.29 18.53-5.02-6.97-3.03-8.47s6.19-2.28 7.55.49c1.64 3.34-1.35 5.2-1.27 6.49.04.68 4.36 3.93 2.74 5.47M293.07 305.35c4 4.06-.15 18.03-7.76 14.24-6.49-3.23 1.18-20.92 7.76-14.24m-5.23 1.77c-2.25.75-3.09 6.85-1.02 8.97 5.45 5.59 7.33-11.07 1.02-8.97M271.32 280.14l1 20.97h-3.99l-1.01-14.98-3.98-.49zM327.28 267.16v3.99l-2.48-.62-1.51 2.61 4.57.93c3.83 5.38-7.9 13.75-7.57 5.07.78-.75 6.06 1.7 4.99-1.99-9.78.05-5.47-10.69 1.99-9.99ZM272.32 311.1l-4.99 5.98c4.21.32 7.02 1.34 5.57 6.04-1.87 6.05-9.61 4.12-8.08 1.96l5.52-1v-2.99l-5.11-1.41c-2.79-4.93 1.87-9.31 7.09-8.58M329.28 294.11h-5v3c2.63-.31 5.85.58 6.05 3.55.34 4.94-7.77 10-9.04 3.45l5.02-.48.98-3.52-5.58-.94c-1.56-4.81 2.01-7.69 6.09-9.03l1.48 3.96Z"/><path d="m320.29 294.13-5.04 3.62.05 3.36 4-.49c-.56 3.06-5.08 2.48-4 6.48.54.57 7.59-2.6 5.98.49l-7.98 3.51-.88-14.34 7.86-2.62ZM282.31 307.1c.73 2.62-2.65 2.3-3.01 3.69-.83 3.15.28 8.92 1.02 12.24l-2.99 1.04-1.02-12.98-2.98-.49 8.98-3.51ZM306.3 298.13l2.99-1.01c-.68 5.12 3.32 11.51-.49 15.96-2.86 0-.35-12.74-2.5-14.95M220.35 264.15l-31.97-18.96c7.23 1.83 14.84 6.28 21.29 10.18 1.33.81 12.53 6.82 10.68 8.79ZM271.33 249.18l-26.98 18.96c6.87-8.15 17.03-15.11 26.98-18.96"/><path d="m313.06 282.91-4.07.32c-2.89-1.91-2.53-14.48 1.82-13.83 4.41 2.84 4.39 9.22 2.24 13.51ZM278.33 286.12c.03-1.61-.38-3.57.48-5 3.52-5.81 10.27 5.57-.48 5M287.84 307.12c6.31-2.1 4.42 14.57-1.02 8.97-2.07-2.13-1.23-8.23 1.02-8.97" class="cls-1"/></svg>