<svg xmlns="http://www.w3.org/2000/svg" id="Calque_1" data-name="Calque 1" viewBox="0 0 500 500"><defs><style>.cls-1{fill:#fff}</style></defs><path d="M266.69 263.45c3.06 11.52 12.22 20.56 13 32.96 19.95-11.22 39.78-5.34 41.97 18.97 6.29-5.57 11.74-13.19 20.71-14.74 11.55-1.99 21.76 4.7 20.16 17.15-1.78 13.84-30.06 35.79-43.64 36.27-18.43.65-11.21-25.61-14.69-36.72-3.12-9.95-9.39-8.06-17.39-4.33-12.61 5.87-16.21 18.09-29.59 23.36-2.1.83-10.88 2.78-11.29 3.19-.37.37-2.17 7.59-3.03 9.45-1.46 3.14-6.66 10.34-6.04 12.59.42 1.53 6.45 6.83 8.16 7.9 6.01 3.76 14.85 4.05 19.64 7.34 12.34 8.49-3.86 34.98-14.65 39.2-6.91 2.71-33.27 4.53-37.15-2.41-4.51-8.06 2.1-17.89 9.9-20.84 5.62-2.12 11.74.12 13.87-6.13.62-1.81-6.95-3.91-7.9-5.86l-7.01-7.06c-7.63 2.19-13.21 4.18-21.44 3.53-9.7-.77-13.88-5.34-21.81-8.16-10.33-3.67-10.32.61-18.41 1.95-13.69 2.27-15.3-12.82-2.96-17.94 24.13-10 35.97 18.87 58.63 7.12-3.05-9.42-.75-17.8.88-27.17-20.34-17.77-14.86-44.93-11.84-68.64-11.93-.38-26.25 5.38-32.81 15.65-4.37 6.84.9 6.01 1.66 11.07.68 4.52.11 11.04 1.39 16.5 1.31 5.61 7.88 7.7 6.78 14.15-1.08 6.31-10.15 5.31-14.35 2.4-2.4-1.65-1.92-4.15-4.63-3.85-1.81 5.59-.03 12.07-2.04 17.45-2.69 7.21-10.23 6.64-13.48.5-12.75 8.73-16.33-5.32-13.48-15.94-1.71.74-1.62 2.63-4.03 3.42-8.85 2.92-11.65-4.58-7.79-11.75 1.93-3.59 5.3-5.18 7.28-7.71 2.65-3.4 3.81-7.65 6.11-10.87 1.61-2.25 6.99-5.84 7.22-6.26.79-1.43-.43-3.85 1.14-6.36 2.69-4.31 7.64-2.49 10.07-3.91.82-.48 3.5-6.46 4.76-8.23 9.91-13.85 23.08-20.75 40.19-22.26l-10.47-7c-22.94-17.09-32.73-45.63-23.26-73.14 1.31-3.81 7.26-13.51 7.45-15.35.36-3.5-2.56-13.05-2.5-17.85.34-27.44 18.55-17.62 32.26-5.79 12.11-5.52 25.65-7.8 38.97-6.68 6.26.53 12.6 3.96 18.5 1.97l-10.42-8.04c-7.85-14.79 4.72-11.74 11.42-2.93l4.67-29.73c1.95-4.63 16.52-1.3 20.55.04 4.64 1.54 20.59 9.42 18.04 15.41-1.14 2.7-7.49 9.64-9.7 13.36-1.34 2.26-4.94 8.35-5.56 10.43-.86 2.87 4.76.42 6.47.39 3.51-.06 6.68.44 8.09 4.05 1.88 6.43-10.85 6.49-14.58 6.02.9 3.19-1.1 6.87-1.04 9.54.06 3.05 5.66 9.04 7.56 12.42 15.09 26.83 10.21 58.92-11.61 80.31l-13.88 10.58c12.72 2.47 31.14-1.99 41.46-9.97 1.2-.93 9.76-9.34 10.06-9.99s-2.98-4.41-1.04-8.96c.38-.88 2.01-1.55 2.32-2.72.15-.56-.25-10.19-.39-11.44-.66-5.87-8.39-9.3-5.71-15.56s10.5-5.26 14.66-1.19c1.86 1.82 1.81 5.53 4.56 4.91 1.87-7.32 15.65-23.69 23.57-17.01 1.03.87 1.23 2.69 1.56 2.95.48.36 6.42-2.36 10.42.02 5.23 3.12 2.08 9.61 2.45 10.02.67.73 5.55-.21 6.06 5.51.74 8.34-9.38 12.14-14.05 18.02-4.09 5.14-5.23 10.74-11.08 14.89-2.18 1.55-6.12 2.48-7.63 3.86-1.23 1.11-1.43 3.47-3.04 4.72-4.04 3.14-7.22.64-9.23 1.44s-5.82 7.04-7.99 9.05c-9.2 8.51-30.01 18.45-42.49 18.45H266.7Zm17.87-139.94c.4-2.45 3.06-5.33 1.15-7.36-.79-.84-19.21-8.22-20.01-7.51l-1.95 7.9c6.49 3.18 13.24 7.36 20.81 6.97m-3.14 64.78c2.5-3.1 2.53-18.49 1.81-22.77-3.17-18.7-23.69-28.42-37.55-13.45-2.86 3.09-3.02 5.03-4.75 8.23-1.94 3.58-3.99-2.9-6.2-5.23-4-4.21-8.66-7.6-14.59-8.38-24.21-3.18-31.94 21.15-25.68 40.64 2.99 9.31 3.74 4.43 10.8 8.19 2.61 1.39 4.48 3.17 5.47 6.01-2.39.18-3.24-2.24-5.29-3.19-12.14-5.62-26.42 2.43-24.47 16.42 1.86 13.38 16.36 25.74 28.09 30.9 29.34 12.9 70.14.04 83.32-29.93 8.21-18.66-5.95-31.76-21.68-18.18-.64-6.22 9.04-7.16 10.73-9.24Zm66.16 5.23c.32-.23 2.2-5.09 3.64-6.89 1.85-2.32 10.75-9.05 3.88-10.12-5.67-.88-17.69 14.42-18.33 18.74-.49 3.32 2.35 2.93 3.89 4.75 1.16 1.37 4.17 7.34 2.97 8.5-2.71 2.64-4.6-5.25-5.94-6.54s-3.74-1.38-4.54-2.45c-2.04-2.74-2.13-13.77-9.96-13-8.71.85 1.54 11.37 2.23 14.73.83 4.05-.37 8.2.7 12.29.47 1.81 8.95 11.14 3.18 8.81-1.4-.57-5.02-5.32-5.64-4.84-5.46 7.87 15.55 18.62 18.97 13.97.81-3.13-4.59-2.89-4.99-4.5-.97-3.95 5.47-.36 8.22-.67 10.39-1.19 12.03-10.94 16.76-17.29 3.05-4.11 12.47-9.51 13.6-13.47 3.1-10.91-14.68-2-17.1 5.04-1.17 3.42 1.96 5.71-1 7.9-4.08-6.82-8.39-10.11-15.49-13.48.2-4.13 3.95-.79 4.94-1.5Zm21.74-6.25c1.42-1.68 1.86-4.49.4-6.3-5.77-7.15-21.16 12.93-20.07 14.54l6.96 4.02c.86-5.67 10.18-9.26 12.71-12.26M170.75 293.41c4.48-4.43-24.66-18.47-24.97-5.99l6.97.5c-2.23 2.27-5.64 2.07-8.33 3.64-6.36 3.71-8.07 11.24-12.22 16.75-3.22 4.27-10.3 7.54-7.95 14.11 3.07 4.59 12.18-7.78 14.04-10.01 3.18-.07-1.16 10.63-1.39 12.57-.45 3.88-1.43 12.96 4.34 12.42 7.46-.69 2.21-21.14 8.03-20.02 2.34.45-.49 8.36-.55 10.47-.09 3.76 2.07 15.16 7.36 11.59 2.83-1.91.97-22.21 7.2-26.05 1.63-.76 3.24 5.01 4.48 6.5 5.14 6.17 13.59 3.13 10.06-2.06-.78-1.15-2.53-2.07-3.49-3.51-3.55-5.36-1.75-10.16-4.71-15.26-1.52-2.61-7.77-6.61-7.83-7.14-.37-3.9 8.19 2.26 8.97 1.49Z"/><path d="M281.42 188.29c-1.69 2.09-11.37 3.02-10.73 9.24 15.73-13.58 29.89-.48 21.68 18.18-13.19 29.98-53.99 42.84-83.32 29.93-11.73-5.16-26.23-17.52-28.09-30.9-1.95-13.99 12.33-22.04 24.47-16.42 2.05.95 2.91 3.36 5.29 3.19-.99-2.83-2.86-4.62-5.47-6.01-7.06-3.75-7.81 1.13-10.8-8.19-6.26-19.49 1.47-43.82 25.68-40.64 5.94.78 10.6 4.17 14.59 8.38 2.21 2.33 4.26 8.81 6.2 5.23 1.73-3.2 1.9-5.14 4.75-8.23 13.86-14.97 34.38-5.25 37.55 13.45.73 4.29.69 19.68-1.81 22.77Zm-23.44 4.96c12.65 10.29 18.62-23.56 8.24-32.69-8.95-7.87-16.17 8.44-12.52 12.52 1.5 1.68 7.13 2.19 8 3.99-6.05 3.52-9.57 2.95-6.77 10.77.39 1.1 2.34 4.83 3.06 5.41Zm-40.26-12.71c-8.7 2.84-10.43 6.49-4.42 13.92 8.38 10.34 15.06-2.78 15.46-11.38.23-4.87-2.36-17.71-6.65-20.38-9.76-6.1-15.89 10.03-12.41 13.4.82.79 9.08 2.89 8.02 4.45Zm26.99 39.96c1.6-4.02.18-9.76 1.2-13.27.89-3.07 9.92-5.7 6.31-11.7-2.61-4.34-24.59-2.28-20.8 5.72 1.91 4.04 9.05 3.49 10.1 6.97.66 2.19.93 12.37-1.45 13.17-2.96.99-17.57-2.22-21.3-3.41-1.99-.64-13.3-5.63-13.95-6.55-.27-.38 2.88-7.19-.59-8.88-3.77.37-1.63 3.72-2.15 5.8-1.16 4.69-4.93 5.8-9.34 5.18v2.99c3.66 1.57 8.81-2.24 11.27-1.85 1.42.22 9.67 5.02 12.94 6.12 18.14 6.09 36.19 4.91 52.75-4.75 2.82-1.65 7.81-6.5 8.94-7.01 1.63-.73 7.15 3.52 9.58.55l.44-3.04c-6.7 1.84-10.72-2.22-9.99-8.99-5.64.16-1.52 6.67-2.46 8.96-2.69 6.54-24.18 14.57-31.5 14Zm10.98 7c-3.51-.03-6.08 2.42-9.57 2.9-2.58.36-15.46-1.8-15.38.59 5.8 4.66 15.39 3.96 21.86.85 2.26-1.09 3.71-1.37 3.1-4.34ZM170.75 293.41c-.78.77-9.34-5.39-8.97-1.49.05.53 6.31 4.53 7.83 7.14 2.97 5.1 1.16 9.9 4.71 15.26.96 1.44 2.71 2.37 3.49 3.51 3.53 5.19-4.93 8.22-10.06 2.06-1.24-1.49-2.85-7.25-4.48-6.5-6.24 3.84-4.37 24.14-7.2 26.05-5.29 3.58-7.45-7.82-7.36-11.59.05-2.11 2.89-10.02.55-10.47-5.82-1.12-.57 19.33-8.03 20.02-5.77.53-4.79-8.54-4.34-12.42.23-1.94 4.57-12.64 1.39-12.57-1.85 2.23-10.97 14.6-14.04 10.01-2.34-6.57 4.73-9.84 7.95-14.11 4.15-5.51 5.87-13.04 12.22-16.75 2.69-1.57 6.1-1.37 8.33-3.64l-6.97-.5c.32-12.48 29.45 1.56 24.97 5.99Zm-22.98.01c-1.67-1.79-8.43 8.55-6.98 9.98 2.64 2.6 7.58-9.33 6.98-9.98m5 1.99c-1.88-2.08-8.74 10.9-4.49 12.97zm3.99 13.99.99-12.99c-3.43.13-4.61 12.38-3.98 12.99zM347.58 193.52c-.99.71-4.75-2.63-4.94 1.5 7.09 3.37 11.4 6.66 15.49 13.48 2.96-2.2-.17-4.48 1-7.9 2.41-7.05 20.2-15.95 17.1-5.04-1.12 3.96-10.54 9.36-13.6 13.47-4.73 6.35-6.37 16.1-16.76 17.29-2.75.31-9.19-3.28-8.22.67.39 1.6 5.8 1.37 4.99 4.5-3.42 4.65-24.43-6.1-18.97-13.97.61-.48 4.23 4.27 5.64 4.84 5.77 2.33-2.71-7-3.18-8.81-1.07-4.09.13-8.24-.7-12.29-.69-3.36-10.94-13.88-2.23-14.73 7.83-.77 7.92 10.26 9.96 13 .8 1.07 3.15 1.12 4.54 2.45s3.23 9.18 5.94 6.54c1.2-1.17-1.82-7.13-2.97-8.5-1.54-1.82-4.38-1.43-3.89-4.75.64-4.33 12.66-19.63 18.33-18.74 6.87 1.07-2.02 7.8-3.88 10.12-1.43 1.8-3.32 6.66-3.64 6.89Z" class="cls-1"/><path d="M369.32 187.27c-2.53 3-11.85 6.59-12.71 12.26l-6.96-4.02c-1.1-1.61 14.3-21.69 20.07-14.54 1.46 1.81 1.03 4.62-.4 6.3M284.56 123.51c-7.57.39-14.32-3.79-20.81-6.97l1.95-7.9c.79-.72 19.22 6.67 20.01 7.51 1.91 2.03-.75 4.91-1.15 7.36" class="cls-1"/><path d="M244.71 220.5c7.32.57 28.81-7.46 31.5-14 .94-2.29-3.17-8.8 2.46-8.96-.72 6.77 3.29 10.83 9.99 8.99l-.44 3.04c-2.44 2.97-7.95-1.28-9.58-.55-1.13.5-6.12 5.36-8.94 7.01-16.56 9.66-34.61 10.84-52.75 4.75-3.27-1.1-11.53-5.9-12.94-6.12-2.47-.39-7.61 3.41-11.27 1.85v-2.99c4.41.62 8.17-.49 9.34-5.18.52-2.08-1.63-5.44 2.15-5.8 3.47 1.69.32 8.5.59 8.88.66.92 11.97 5.91 13.95 6.55 3.73 1.2 18.34 4.4 21.3 3.41 2.38-.8 2.11-10.98 1.45-13.17-1.05-3.48-8.19-2.93-10.1-6.97-3.79-8.01 18.19-10.06 20.8-5.72 3.61 6.01-5.42 8.64-6.31 11.7-1.02 3.52.4 9.25-1.2 13.27Z"/><path d="M217.72 180.54c1.06-1.56-7.2-3.66-8.02-4.45-3.48-3.37 2.65-19.5 12.41-13.4 4.28 2.68 6.88 15.51 6.65 20.38-.4 8.6-7.08 21.72-15.46 11.38-6.02-7.42-4.29-11.07 4.42-13.92ZM257.98 193.25c-.72-.59-2.67-4.31-3.06-5.41-2.8-7.82.73-7.25 6.77-10.77-.87-1.79-6.49-2.31-8-3.99-3.65-4.08 3.57-20.39 12.52-12.52 10.38 9.13 4.42 42.98-8.24 32.69ZM255.69 227.5c.62 2.98-.83 3.26-3.1 4.34-6.47 3.11-16.06 3.81-21.86-.85-.08-2.39 12.8-.24 15.38-.59 3.5-.48 6.06-2.93 9.57-2.9ZM152.77 295.41l-4.49 12.97c-4.25-2.07 2.61-15.05 4.49-12.97M156.76 309.4h-2.99c-.63-.62.55-12.86 3.98-12.99zM147.77 293.42c.6.64-4.35 12.58-6.98 9.98-1.44-1.43 5.31-11.77 6.98-9.98"/></svg>