<svg xmlns="http://www.w3.org/2000/svg" id="Calque_1" data-name="Calque 1" viewBox="106 70 288 360"><defs><style>.cls-1{fill:#fff}</style></defs><path d="M314.29 120.89c4.16-.13 13.77-1.26 11.86 5.3-.7 2.41-3.58 1.77-3.87 3.68 14.8-1.34 14.4 7.24 11.02 18.52-1.3 4.33-6.68 12.36-7.02 15.03-.54 4.28 2.75 12.59 3.02 17.85 1.09 21.46-10.02 43.3-27.7 55.28l-12.3 7.17c13.41.24 26.18 3.44 38.18 9.29 2.83 1.38 9.93 6.83 11.66 7.18 2.69.55 6.02-1.6 9.89.25 1.8.86 2.11 2.86 3.3 3.69 2.13 1.49 6.33 1.91 9.26 3.73 4.22 2.63 13.39 9.91 17.67 13.3 6.47 5.12 10.6 15.44-1.02 15.51-.64.6 7.7 11.41-.76 15.78-6.73 3.49-10.19-5.52-14.23-8.8 2.73 6.07 3.66 19.33-6.25 17.8-9.47-1.47-6.9-16.24-12.26-21.79-2.38 10.96-21.41 13.21-18.27-.3.73-3.13 4.54-4.82 4.65-8.14.03-.93-.81-6.93-1.08-7.83-.56-1.81-3.22-3.04-3.64-5.45-.48-2.75 1.87-4.4-.14-6.73-7.1-8.23-39.39-12.93-49.86-9.41-.39 15.37 11.8 27.69 8.89 43.84 24.32-7.91 42.04 4.8 35.97 30.96 9.68-5.8 26.12-8.82 33.4 2.07 10.78 16.12-17.57 26.74-29.4 29.4-8.1 1.82-27.09 5.83-28.94-6.07-1.75-11.27 22.12-43.22-5.44-40.27-13.91 1.49-19.32 12.11-32.14 15.81-6.78 1.96-13.3 2.28-20.32 2.16-3.7 13.49 1.03 23.65 12.85 30.38 13.36 7.61 32.18 3.41 22.87 26.78-7.4 18.58-23.1 28.78-43.26 23.55-9.14-2.37-9.21-10.51-5.11-17.96 5.25-9.54 15.91-5.23 21.51-14.43-19.49-10.01-29.35-22.09-27.94-44.92.19-3.09 2.58-7.69 1.08-10.02-4.96-7.69-9.05-2.39-15.69-1.59-10.12 1.22-18.5-1.31-26.7-7.05-12.84-8.99-19.91-30.29-38.68-25.33-7.3 1.93-11.55 13-20.33 8.39s-3.05-14.27 3.05-18.67c12.82-9.24 29.64-9.13 42.21.41 13.47 10.22 21.63 37.05 43.91 25.91-8.76-20.99-1.16-45.47 7.14-65.44-16.49-3.55-33.36-13.3-43.95-26.5-4.04-5.04-7.63-15.32-10.55-18.42-1.81-1.92-4.69-1.63-6.51-3.48-2.25-2.3-1.4-5.17-2.49-7.5-.91-1.94-4.44-3.92-6.01-6.97-2.32-4.51-1.92-9.07-3.38-13.6-2.07-6.4-12.77-17.07-3.98-22.87 2.57-1.7 5.03-1.63 7.49.41 1.25 1.04.86 3.15 2.43 3.04-2.22-9.91 5.03-21.96 13.21-10.69l2.78 11.69c.58-6.72 2.42-16.43 11.3-13.77 10.18 3.06-.18 23.68 1.71 25.75 6.22-2.64 14.47-4.18 16.48 3.99 2.84-6.87 4.24-13.31 8.08-19.89 2.25-3.86 5.93-8.73 8.9-12.08 2.04-2.3 7.06-5.21 7.96-7.02 1.55-3.12 1.13-8.51 1.99-11.99 7.1-28.49 18.86-21.65 31.19-1.11 19.87-1.21 38.22 4.72 53.81 16.79 4.88-2.23 9.94-4.92 15.48-4.66l-13.79-2.68c-8.55-2.33-28.93-13.48-31.72-22.23-2-6.28 2.93-8.85 7.59-4.58 2.01 1.85 2.79 5.69 5.94 5.53l6.68-26.74c2.34-5.29 19.25 1.51 22.98 3.61 3.51 1.98 12.03 8.26 12.88 12.07.74 3.32-18.48 18.62-17.53 25.05Zm-1.01-7.97c-5.08-1.36-13.81-8.51-18.52-9-2.37-.25-1.81 4.4-3.34 5.68l.31 1.3 17.1 8.74 4.45-6.73Zm-41.96 46.92c-2.63-24.6-32.37-31.82-42.99-7.51-2.05 4.69-4.85 15.92-3.78 20.77 1.15 5.19 10.33 6.47 8.78 13.7l-6.63-6.84c-21.29-8.49-25.78 12.68-19.83 28.8 13.82 37.43 72.37 48.27 97.93 18 11.75-13.92 4.26-30.53-14.5-24.99 2.06-4.8 9.52-3.05 11.99-4.49 1.26-.73 5.78-9.57 6.48-11.5 9.24-25.28-11.06-48.13-33.52-29.49-1.87 1.55-1.25 4.2-3.93 3.54Zm-116.91 4 7.76-2.46c-2.06-3.68-1.34-19.08-6.3-19.59-8.24-.83-2.79 17.9-1.46 22.04Zm18.89 6.91c.85-.9 3.92-22.66 3.19-24.44-1.92-4.68-6.16-2.45-7.63 1.53-.79 2.15-2.64 11.37-2.6 13.54.04 2.35 2.95.47 2.11 3.44-5.45-.59-9.64.59-14.33 3.16-1.26.69-2.42 2.51-3.17 2.83-3.5 1.48.37-4.8.33-5.31-.22-2.93-7.64-15.31-11.72-12.56-3.69 6.89 3.25 12.25 5.4 17.89 2.31 6.08 1.74 14.9 7.54 19.42 2.83 2.21 6.31 1.87 8.94 4.05l-5.98 1.49c1.55 7.03 10.97 5.31 15.97 3.48 3.14-1.15 6.07-2.82 5.01-6.48-.29-.33-10.16 4.64-7.98.51.76-1.43 5.38-2.12 7.54-4.46 4.42-4.8 4.36-12.89 14.27-14.19l.02-5.69c-7.18-4.43-10.29 2.73-13.87 4.33-2.57 1.15-5.66.32-8.89 2.1-1.34.74-4.1 4.37-4.58 4.39-3.47.19 1.43-5.74 2.45-6.52 2.84-2.16 7.67-2.22 7.96-2.53Zm44.05 61.99c-16.26-15.16-24.41-34.6-24.48-56.91-3.26 4.03-7.13 3.23-10.33 7.66-3.92 5.43-1.91 6.14-2.21 10.76-.18 2.83-3.17 4.52-2.54 7.55 2.7 13.06 26.39 29.66 39.55 30.94Zm130.91 32.95c-3.31-10.64-24.29 10.5-16.49 13.99 1.18-1.2 1.21-4.18 3.03-4.95 5.12-2.18-.22 5.85-.47 7.52-.53 3.44.42 7.16-.29 10.69s-8.98 10.52-2.05 12.55c8.28 2.43 8.66-8.61 10.39-9.69 3.93-2.46 7.32 5.11 8.35 7.88 1.73 4.64 1.52 14.9 7.96 13.98 8.17-1.17-.78-16.68-1.44-21.45l2.47-1.54c4.82 2.43 10.49 16.33 15.79 14.84 9.33-5.78-10.09-18.41-9.28-22.31.72-3.48 5.5 2.59 6.66 3.31 1.31.82 5.68 3.18 6.88 3.17l2-.96c1.96-7.83-8.33-10.82-13.45-14.61-2.98-2.2-5.11-5.82-8.38-7.61-6.19-3.39-10.26-2.66-16.69-.8l4.99-4Z"/><path d="M271.32 161.14c2.68.66 2.06-1.99 3.93-3.54 22.46-18.64 42.76 4.21 33.52 29.49-.7 1.93-5.23 10.77-6.48 11.5-2.47 1.44-9.93-.32-11.99 4.49 18.76-5.55 26.25 11.07 14.5 24.99-25.56 30.27-84.11 19.43-97.93-18-5.95-16.12-1.47-37.29 19.83-28.8l6.63 6.84c1.56-7.23-7.63-8.51-8.78-13.7-1.07-4.84 1.73-16.08 3.78-20.77 10.62-24.32 40.36-17.09 42.99 7.51Zm-30.7 26.67c12.24 10.14 25.23-30.51 11.73-34.26-5.55-1.54-13.35 7.55-11.54 11.55.88 1.94 5.47 3.99 5.54 6.52l-9.05 3.16c-.75 3.05.84 10.97 3.32 13.03m46.68-4.71c-7.44.11-11.05-.09-9.9 8.41 1.12 8.29 8.62 10.47 13.91 4.1 12.32-14.86 5.08-48.26-10.84-20.8zm-31.99 32.97c-6.18-.42-28.87-15.37-28.95-20.46-.04-2.35 4.36-5.84.49-8.49-2.17 1.3-2.56 6.01-4.16 7.04-2.57 1.66-9.44-.77-9.31 1.43.17 2.92 7.73 2.61 9.88 2.59 2.34 14.38 9.72 30.85 24.39 36.05 19.04 6.75 33.49-4.28 46.16-17.13 1.81 1.99 6.06 5.63 8.49 2.45.57-2.75-4.39-1.94-5.92-4.04-1.98-2.71.72-9.53-1.57-9.41s-2.31 6.1-3.4 7.57c-3.58 4.79-26.1 5.2-32.08 3.39-.44-.44 2.84-11.15 3.52-11.96 2.13-2.54 10.64-2.16 10.36-7.5-.38-7.26-18.93-10.49-19.93-3.97-.78 5.12 5.69 6.39 6.05 9.97.4 3.86-3.25 8.76-4.02 12.47M348.26 266.99l-4.99 4c6.43-1.86 10.5-2.59 16.69.8 3.27 1.79 5.39 5.41 8.38 7.61 5.12 3.78 15.41 6.78 13.45 14.61l-2 .96c-1.2.01-5.57-2.35-6.88-3.17-1.16-.72-5.94-6.79-6.66-3.31-.81 3.91 18.6 16.53 9.28 22.31-5.3 1.49-10.97-12.41-15.79-14.84l-2.47 1.54c.66 4.77 9.6 20.28 1.44 21.45-6.44.92-6.23-9.34-7.96-13.98-1.03-2.77-4.42-10.34-8.35-7.88-1.73 1.08-2.11 12.12-10.39 9.69-6.93-2.03 1.36-9.13 2.05-12.55s-.23-7.25.29-10.69c.26-1.67 5.59-9.7.47-7.52-1.82.77-1.85 3.75-3.03 4.95-7.8-3.49 13.18-24.63 16.49-13.99Zm10.68 9.28c-1.36-1.43-5.57-3.04-7.68-3.27-1.35 1.26 6.98 6.95 7.5 6.96 1.71.04 1.18-2.65.19-3.69Zm-2.69 8.7c1.87-1.83-6.35-9.72-8.98-8.98-.81.75 4.96 7.07 5.69 7.74 1.1 1.02.64 1.8 3.29 1.24m-7 5c.4-3.94-1.47-10.36-5.98-10.98-.91.98 2.73 7.7 3.5 9.01s-.18 2.52 2.48 1.97M173.3 172.05c-.29.31-5.12.36-7.96 2.53-1.02.78-5.93 6.71-2.45 6.52.48-.03 3.23-3.65 4.58-4.39 3.23-1.78 6.32-.95 8.89-2.1 3.58-1.6 6.69-8.76 13.87-4.33l-.02 5.69c-9.91 1.3-9.85 9.39-14.27 14.19-2.15 2.34-6.78 3.03-7.54 4.46-2.18 4.13 7.69-.84 7.98-.51 1.06 3.65-1.87 5.33-5.01 6.48-5 1.83-14.41 3.55-15.97-3.48l5.98-1.49c-2.63-2.19-6.11-1.84-8.94-4.05-5.8-4.53-5.23-13.35-7.54-19.42-2.14-5.63-9.09-11-5.4-17.89 4.08-2.75 11.5 9.63 11.72 12.56.04.52-3.83 6.8-.33 5.31.75-.32 1.91-2.14 3.17-2.83 4.68-2.57 8.87-3.75 14.33-3.16.84-2.97-2.06-1.1-2.11-3.44-.04-2.17 1.81-11.4 2.6-13.54 1.47-3.98 5.7-6.21 7.63-1.53.73 1.78-2.34 23.54-3.19 24.44ZM313.28 114.22l-4.45 6.73-17.1-8.74-.31-1.3c1.54-1.29.97-5.93 3.34-5.68 4.71.49 13.44 7.64 18.52 9Z" class="cls-1"/><path d="M154.41 165.14c-1.33-4.14-6.78-22.88 1.46-22.04 4.96.5 4.24 15.9 6.3 19.59l-7.76 2.46Z" class="cls-1"/><path d="M255.31 216.07c.77-3.71 4.41-8.61 4.02-12.47-.37-3.57-6.83-4.85-6.05-9.97 1-6.52 19.55-3.3 19.93 3.97.28 5.34-8.23 4.97-10.36 7.5-.68.81-3.96 11.52-3.52 11.96 5.98 1.8 28.5 1.4 32.08-3.39 1.09-1.46 1.01-7.44 3.4-7.57s-.42 6.69 1.57 9.41c1.53 2.1 6.49 1.29 5.92 4.04-2.43 3.18-6.68-.45-8.49-2.45-12.67 12.85-27.12 23.88-46.16 17.13-14.66-5.2-22.05-21.67-24.39-36.05-2.15.02-9.71.33-9.88-2.59-.13-2.2 6.73.24 9.31-1.43 1.6-1.04 2-5.74 4.16-7.04 3.87 2.65-.53 6.14-.49 8.49.08 5.08 22.77 20.04 28.95 20.46m0 11.97c-4.57-4.18-10.61-8.25-16.97-5.97-.99 1.28 3.08 4.64 4.08 5.4 6.36 4.84 16.2 7.1 23.89 4.57 1.8-2.56-11.2-9.59-11-3.99Z"/><path d="M240.62 187.81c-2.48-2.06-4.07-9.98-3.32-13.03l9.05-3.16c-.07-2.53-4.66-4.58-5.54-6.52-1.81-4 5.99-13.09 11.54-11.55 13.5 3.75.51 44.4-11.73 34.26M287.3 183.1l-6.83-8.29c15.92-27.47 23.16 5.94 10.84 20.8-5.29 6.37-12.79 4.2-13.91-4.1-1.15-8.5 2.46-8.3 9.9-8.41M349.25 289.97c-2.66.55-1.72-.68-2.48-1.97s-4.42-8.03-3.5-9.01c4.51.62 6.38 7.03 5.98 10.98M356.25 284.97c-2.65.56-2.19-.22-3.29-1.24-.73-.68-6.51-6.99-5.69-7.74 2.64-.74 10.85 7.14 8.98 8.98M358.94 276.27c.99 1.04 1.52 3.73-.19 3.69-.52-.01-8.84-5.7-7.5-6.96 2.11.23 6.33 1.84 7.68 3.27Z"/><path d="M255.31 228.04c-.19-5.6 12.81 1.43 11 3.99-7.69 2.53-17.54.27-23.89-4.57-.99-.76-5.07-4.11-4.08-5.4 6.35-2.28 12.4 1.79 16.97 5.97Z" class="cls-1"/></svg>